<?xml version="1.0" encoding="utf-8" standalone="no"?>
<!DOCTYPE svg PUBLIC "-//W3C//DTD SVG 1.1//EN"
  "http://www.w3.org/Graphics/SVG/1.1/DTD/svg11.dtd">
<svg xmlns:xlink="http://www.w3.org/1999/xlink" width="276.739375pt" height="229.694063pt" viewBox="0 0 276.739375 229.694063" xmlns="http://www.w3.org/2000/svg" version="1.1">
 <metadata>
  <rdf:RDF xmlns:dc="http://purl.org/dc/elements/1.1/" xmlns:cc="http://creativecommons.org/ns#" xmlns:rdf="http://www.w3.org/1999/02/22-rdf-syntax-ns#">
   <cc:Work>
    <dc:type rdf:resource="http://purl.org/dc/dcmitype/StillImage"/>
    <dc:date>2025-11-07T15:12:36.964450</dc:date>
    <dc:format>image/svg+xml</dc:format>
    <dc:creator>
     <cc:Agent>
      <dc:title>Matplotlib v3.8.4, https://matplotlib.org/</dc:title>
     </cc:Agent>
    </dc:creator>
   </cc:Work>
  </rdf:RDF>
 </metadata>
 <defs>
  <style type="text/css">*{stroke-linejoin: round; stroke-linecap: butt}</style>
 </defs>
 <g id="figure_1">
  <g id="patch_1">
   <path d="M 0 229.694063 
L 276.739375 229.694063 
L 276.739375 0 
L 0 0 
L 0 229.694063 
z
" style="fill: none"/>
  </g>
  <g id="axes_1">
   <g id="patch_2">
    <path d="M 46.339375 188.638125 
L 269.539375 188.638125 
L 269.539375 22.318125 
L 46.339375 22.318125 
L 46.339375 188.638125 
z
" style="fill: none"/>
   </g>
   <g id="matplotlib.axis_1">
    <g id="xtick_1">
     <g id="line2d_1">
      <defs>
       <path id="m116b2b2332" d="M 0 0 
L 0 3.5 
" style="stroke: #000000; stroke-width: 0.8"/>
      </defs>
      <g>
       <use xlink:href="#m116b2b2332" x="56.484828" y="188.638125" style="stroke: #000000; stroke-width: 0.8"/>
      </g>
     </g>
     <g id="text_1">
      <!-- 0 -->
      <g transform="translate(52.985453 203.996406) scale(0.11 -0.11)">
       <defs>
        <path id="DejaVuSans-30" d="M 2034 4250 
Q 1547 4250 1301 3770 
Q 1056 3291 1056 2328 
Q 1056 1369 1301 889 
Q 1547 409 2034 409 
Q 2525 409 2770 889 
Q 3016 1369 3016 2328 
Q 3016 3291 2770 3770 
Q 2525 4250 2034 4250 
z
M 2034 4750 
Q 2819 4750 3233 4129 
Q 3647 3509 3647 2328 
Q 3647 1150 3233 529 
Q 2819 -91 2034 -91 
Q 1250 -91 836 529 
Q 422 1150 422 2328 
Q 422 3509 836 4129 
Q 1250 4750 2034 4750 
z
" transform="scale(0.015625)"/>
       </defs>
       <use xlink:href="#DejaVuSans-30"/>
      </g>
     </g>
    </g>
    <g id="xtick_2">
     <g id="line2d_2">
      <g>
       <use xlink:href="#m116b2b2332" x="115.383873" y="188.638125" style="stroke: #000000; stroke-width: 0.8"/>
      </g>
     </g>
     <g id="text_2">
      <!-- 500 -->
      <g transform="translate(104.885748 203.996406) scale(0.11 -0.11)">
       <defs>
        <path id="DejaVuSans-35" d="M 691 4666 
L 3169 4666 
L 3169 4134 
L 1269 4134 
L 1269 2991 
Q 1406 3038 1543 3061 
Q 1681 3084 1819 3084 
Q 2600 3084 3056 2656 
Q 3513 2228 3513 1497 
Q 3513 744 3044 326 
Q 2575 -91 1722 -91 
Q 1428 -91 1123 -41 
Q 819 9 494 109 
L 494 744 
Q 775 591 1075 516 
Q 1375 441 1709 441 
Q 2250 441 2565 725 
Q 2881 1009 2881 1497 
Q 2881 1984 2565 2268 
Q 2250 2553 1709 2553 
Q 1456 2553 1204 2497 
Q 953 2441 691 2322 
L 691 4666 
z
" transform="scale(0.015625)"/>
       </defs>
       <use xlink:href="#DejaVuSans-35"/>
       <use xlink:href="#DejaVuSans-30" x="63.623047"/>
       <use xlink:href="#DejaVuSans-30" x="127.246094"/>
      </g>
     </g>
    </g>
    <g id="xtick_3">
     <g id="line2d_3">
      <g>
       <use xlink:href="#m116b2b2332" x="174.282919" y="188.638125" style="stroke: #000000; stroke-width: 0.8"/>
      </g>
     </g>
     <g id="text_3">
      <!-- 1000 -->
      <g transform="translate(160.285419 203.996406) scale(0.11 -0.11)">
       <defs>
        <path id="DejaVuSans-31" d="M 794 531 
L 1825 531 
L 1825 4091 
L 703 3866 
L 703 4441 
L 1819 4666 
L 2450 4666 
L 2450 531 
L 3481 531 
L 3481 0 
L 794 0 
L 794 531 
z
" transform="scale(0.015625)"/>
       </defs>
       <use xlink:href="#DejaVuSans-31"/>
       <use xlink:href="#DejaVuSans-30" x="63.623047"/>
       <use xlink:href="#DejaVuSans-30" x="127.246094"/>
       <use xlink:href="#DejaVuSans-30" x="190.869141"/>
      </g>
     </g>
    </g>
    <g id="xtick_4">
     <g id="line2d_4">
      <g>
       <use xlink:href="#m116b2b2332" x="233.181965" y="188.638125" style="stroke: #000000; stroke-width: 0.8"/>
      </g>
     </g>
     <g id="text_4">
      <!-- 1500 -->
      <g transform="translate(219.184465 203.996406) scale(0.11 -0.11)">
       <use xlink:href="#DejaVuSans-31"/>
       <use xlink:href="#DejaVuSans-35" x="63.623047"/>
       <use xlink:href="#DejaVuSans-30" x="127.246094"/>
       <use xlink:href="#DejaVuSans-30" x="190.869141"/>
      </g>
     </g>
    </g>
    <g id="text_5">
     <!-- Specific Capacity (mAh g$^{-1}$) -->
     <g transform="translate(80.939375 220.184063) scale(0.11 -0.11)">
      <defs>
       <path id="DejaVuSans-53" d="M 3425 4513 
L 3425 3897 
Q 3066 4069 2747 4153 
Q 2428 4238 2131 4238 
Q 1616 4238 1336 4038 
Q 1056 3838 1056 3469 
Q 1056 3159 1242 3001 
Q 1428 2844 1947 2747 
L 2328 2669 
Q 3034 2534 3370 2195 
Q 3706 1856 3706 1288 
Q 3706 609 3251 259 
Q 2797 -91 1919 -91 
Q 1588 -91 1214 -16 
Q 841 59 441 206 
L 441 856 
Q 825 641 1194 531 
Q 1563 422 1919 422 
Q 2459 422 2753 634 
Q 3047 847 3047 1241 
Q 3047 1584 2836 1778 
Q 2625 1972 2144 2069 
L 1759 2144 
Q 1053 2284 737 2584 
Q 422 2884 422 3419 
Q 422 4038 858 4394 
Q 1294 4750 2059 4750 
Q 2388 4750 2728 4690 
Q 3069 4631 3425 4513 
z
" transform="scale(0.015625)"/>
       <path id="DejaVuSans-70" d="M 1159 525 
L 1159 -1331 
L 581 -1331 
L 581 3500 
L 1159 3500 
L 1159 2969 
Q 1341 3281 1617 3432 
Q 1894 3584 2278 3584 
Q 2916 3584 3314 3078 
Q 3713 2572 3713 1747 
Q 3713 922 3314 415 
Q 2916 -91 2278 -91 
Q 1894 -91 1617 61 
Q 1341 213 1159 525 
z
M 3116 1747 
Q 3116 2381 2855 2742 
Q 2594 3103 2138 3103 
Q 1681 3103 1420 2742 
Q 1159 2381 1159 1747 
Q 1159 1113 1420 752 
Q 1681 391 2138 391 
Q 2594 391 2855 752 
Q 3116 1113 3116 1747 
z
" transform="scale(0.015625)"/>
       <path id="DejaVuSans-65" d="M 3597 1894 
L 3597 1613 
L 953 1613 
Q 991 1019 1311 708 
Q 1631 397 2203 397 
Q 2534 397 2845 478 
Q 3156 559 3463 722 
L 3463 178 
Q 3153 47 2828 -22 
Q 2503 -91 2169 -91 
Q 1331 -91 842 396 
Q 353 884 353 1716 
Q 353 2575 817 3079 
Q 1281 3584 2069 3584 
Q 2775 3584 3186 3129 
Q 3597 2675 3597 1894 
z
M 3022 2063 
Q 3016 2534 2758 2815 
Q 2500 3097 2075 3097 
Q 1594 3097 1305 2825 
Q 1016 2553 972 2059 
L 3022 2063 
z
" transform="scale(0.015625)"/>
       <path id="DejaVuSans-63" d="M 3122 3366 
L 3122 2828 
Q 2878 2963 2633 3030 
Q 2388 3097 2138 3097 
Q 1578 3097 1268 2742 
Q 959 2388 959 1747 
Q 959 1106 1268 751 
Q 1578 397 2138 397 
Q 2388 397 2633 464 
Q 2878 531 3122 666 
L 3122 134 
Q 2881 22 2623 -34 
Q 2366 -91 2075 -91 
Q 1284 -91 818 406 
Q 353 903 353 1747 
Q 353 2603 823 3093 
Q 1294 3584 2113 3584 
Q 2378 3584 2631 3529 
Q 2884 3475 3122 3366 
z
" transform="scale(0.015625)"/>
       <path id="DejaVuSans-69" d="M 603 3500 
L 1178 3500 
L 1178 0 
L 603 0 
L 603 3500 
z
M 603 4863 
L 1178 4863 
L 1178 4134 
L 603 4134 
L 603 4863 
z
" transform="scale(0.015625)"/>
       <path id="DejaVuSans-66" d="M 2375 4863 
L 2375 4384 
L 1825 4384 
Q 1516 4384 1395 4259 
Q 1275 4134 1275 3809 
L 1275 3500 
L 2222 3500 
L 2222 3053 
L 1275 3053 
L 1275 0 
L 697 0 
L 697 3053 
L 147 3053 
L 147 3500 
L 697 3500 
L 697 3744 
Q 697 4328 969 4595 
Q 1241 4863 1831 4863 
L 2375 4863 
z
" transform="scale(0.015625)"/>
       <path id="DejaVuSans-20" transform="scale(0.015625)"/>
       <path id="DejaVuSans-43" d="M 4122 4306 
L 4122 3641 
Q 3803 3938 3442 4084 
Q 3081 4231 2675 4231 
Q 1875 4231 1450 3742 
Q 1025 3253 1025 2328 
Q 1025 1406 1450 917 
Q 1875 428 2675 428 
Q 3081 428 3442 575 
Q 3803 722 4122 1019 
L 4122 359 
Q 3791 134 3420 21 
Q 3050 -91 2638 -91 
Q 1578 -91 968 557 
Q 359 1206 359 2328 
Q 359 3453 968 4101 
Q 1578 4750 2638 4750 
Q 3056 4750 3426 4639 
Q 3797 4528 4122 4306 
z
" transform="scale(0.015625)"/>
       <path id="DejaVuSans-61" d="M 2194 1759 
Q 1497 1759 1228 1600 
Q 959 1441 959 1056 
Q 959 750 1161 570 
Q 1363 391 1709 391 
Q 2188 391 2477 730 
Q 2766 1069 2766 1631 
L 2766 1759 
L 2194 1759 
z
M 3341 1997 
L 3341 0 
L 2766 0 
L 2766 531 
Q 2569 213 2275 61 
Q 1981 -91 1556 -91 
Q 1019 -91 701 211 
Q 384 513 384 1019 
Q 384 1609 779 1909 
Q 1175 2209 1959 2209 
L 2766 2209 
L 2766 2266 
Q 2766 2663 2505 2880 
Q 2244 3097 1772 3097 
Q 1472 3097 1187 3025 
Q 903 2953 641 2809 
L 641 3341 
Q 956 3463 1253 3523 
Q 1550 3584 1831 3584 
Q 2591 3584 2966 3190 
Q 3341 2797 3341 1997 
z
" transform="scale(0.015625)"/>
       <path id="DejaVuSans-74" d="M 1172 4494 
L 1172 3500 
L 2356 3500 
L 2356 3053 
L 1172 3053 
L 1172 1153 
Q 1172 725 1289 603 
Q 1406 481 1766 481 
L 2356 481 
L 2356 0 
L 1766 0 
Q 1100 0 847 248 
Q 594 497 594 1153 
L 594 3053 
L 172 3053 
L 172 3500 
L 594 3500 
L 594 4494 
L 1172 4494 
z
" transform="scale(0.015625)"/>
       <path id="DejaVuSans-79" d="M 2059 -325 
Q 1816 -950 1584 -1140 
Q 1353 -1331 966 -1331 
L 506 -1331 
L 506 -850 
L 844 -850 
Q 1081 -850 1212 -737 
Q 1344 -625 1503 -206 
L 1606 56 
L 191 3500 
L 800 3500 
L 1894 763 
L 2988 3500 
L 3597 3500 
L 2059 -325 
z
" transform="scale(0.015625)"/>
       <path id="DejaVuSans-28" d="M 1984 4856 
Q 1566 4138 1362 3434 
Q 1159 2731 1159 2009 
Q 1159 1288 1364 580 
Q 1569 -128 1984 -844 
L 1484 -844 
Q 1016 -109 783 600 
Q 550 1309 550 2009 
Q 550 2706 781 3412 
Q 1013 4119 1484 4856 
L 1984 4856 
z
" transform="scale(0.015625)"/>
       <path id="DejaVuSans-6d" d="M 3328 2828 
Q 3544 3216 3844 3400 
Q 4144 3584 4550 3584 
Q 5097 3584 5394 3201 
Q 5691 2819 5691 2113 
L 5691 0 
L 5113 0 
L 5113 2094 
Q 5113 2597 4934 2840 
Q 4756 3084 4391 3084 
Q 3944 3084 3684 2787 
Q 3425 2491 3425 1978 
L 3425 0 
L 2847 0 
L 2847 2094 
Q 2847 2600 2669 2842 
Q 2491 3084 2119 3084 
Q 1678 3084 1418 2786 
Q 1159 2488 1159 1978 
L 1159 0 
L 581 0 
L 581 3500 
L 1159 3500 
L 1159 2956 
Q 1356 3278 1631 3431 
Q 1906 3584 2284 3584 
Q 2666 3584 2933 3390 
Q 3200 3197 3328 2828 
z
" transform="scale(0.015625)"/>
       <path id="DejaVuSans-41" d="M 2188 4044 
L 1331 1722 
L 3047 1722 
L 2188 4044 
z
M 1831 4666 
L 2547 4666 
L 4325 0 
L 3669 0 
L 3244 1197 
L 1141 1197 
L 716 0 
L 50 0 
L 1831 4666 
z
" transform="scale(0.015625)"/>
       <path id="DejaVuSans-68" d="M 3513 2113 
L 3513 0 
L 2938 0 
L 2938 2094 
Q 2938 2591 2744 2837 
Q 2550 3084 2163 3084 
Q 1697 3084 1428 2787 
Q 1159 2491 1159 1978 
L 1159 0 
L 581 0 
L 581 4863 
L 1159 4863 
L 1159 2956 
Q 1366 3272 1645 3428 
Q 1925 3584 2291 3584 
Q 2894 3584 3203 3211 
Q 3513 2838 3513 2113 
z
" transform="scale(0.015625)"/>
       <path id="DejaVuSans-67" d="M 2906 1791 
Q 2906 2416 2648 2759 
Q 2391 3103 1925 3103 
Q 1463 3103 1205 2759 
Q 947 2416 947 1791 
Q 947 1169 1205 825 
Q 1463 481 1925 481 
Q 2391 481 2648 825 
Q 2906 1169 2906 1791 
z
M 3481 434 
Q 3481 -459 3084 -895 
Q 2688 -1331 1869 -1331 
Q 1566 -1331 1297 -1286 
Q 1028 -1241 775 -1147 
L 775 -588 
Q 1028 -725 1275 -790 
Q 1522 -856 1778 -856 
Q 2344 -856 2625 -561 
Q 2906 -266 2906 331 
L 2906 616 
Q 2728 306 2450 153 
Q 2172 0 1784 0 
Q 1141 0 747 490 
Q 353 981 353 1791 
Q 353 2603 747 3093 
Q 1141 3584 1784 3584 
Q 2172 3584 2450 3431 
Q 2728 3278 2906 2969 
L 2906 3500 
L 3481 3500 
L 3481 434 
z
" transform="scale(0.015625)"/>
       <path id="DejaVuSans-2212" d="M 678 2272 
L 4684 2272 
L 4684 1741 
L 678 1741 
L 678 2272 
z
" transform="scale(0.015625)"/>
       <path id="DejaVuSans-29" d="M 513 4856 
L 1013 4856 
Q 1481 4119 1714 3412 
Q 1947 2706 1947 2009 
Q 1947 1309 1714 600 
Q 1481 -109 1013 -844 
L 513 -844 
Q 928 -128 1133 580 
Q 1338 1288 1338 2009 
Q 1338 2731 1133 3434 
Q 928 4138 513 4856 
z
" transform="scale(0.015625)"/>
      </defs>
      <use xlink:href="#DejaVuSans-53" transform="translate(0 0.684375)"/>
      <use xlink:href="#DejaVuSans-70" transform="translate(63.476562 0.684375)"/>
      <use xlink:href="#DejaVuSans-65" transform="translate(126.953125 0.684375)"/>
      <use xlink:href="#DejaVuSans-63" transform="translate(188.476562 0.684375)"/>
      <use xlink:href="#DejaVuSans-69" transform="translate(243.457031 0.684375)"/>
      <use xlink:href="#DejaVuSans-66" transform="translate(271.240234 0.684375)"/>
      <use xlink:href="#DejaVuSans-69" transform="translate(306.445312 0.684375)"/>
      <use xlink:href="#DejaVuSans-63" transform="translate(334.228516 0.684375)"/>
      <use xlink:href="#DejaVuSans-20" transform="translate(389.208984 0.684375)"/>
      <use xlink:href="#DejaVuSans-43" transform="translate(420.996094 0.684375)"/>
      <use xlink:href="#DejaVuSans-61" transform="translate(490.820312 0.684375)"/>
      <use xlink:href="#DejaVuSans-70" transform="translate(552.099609 0.684375)"/>
      <use xlink:href="#DejaVuSans-61" transform="translate(615.576172 0.684375)"/>
      <use xlink:href="#DejaVuSans-63" transform="translate(676.855469 0.684375)"/>
      <use xlink:href="#DejaVuSans-69" transform="translate(731.835938 0.684375)"/>
      <use xlink:href="#DejaVuSans-74" transform="translate(759.619141 0.684375)"/>
      <use xlink:href="#DejaVuSans-79" transform="translate(798.828125 0.684375)"/>
      <use xlink:href="#DejaVuSans-20" transform="translate(858.007812 0.684375)"/>
      <use xlink:href="#DejaVuSans-28" transform="translate(889.794922 0.684375)"/>
      <use xlink:href="#DejaVuSans-6d" transform="translate(928.808594 0.684375)"/>
      <use xlink:href="#DejaVuSans-41" transform="translate(1026.220703 0.684375)"/>
      <use xlink:href="#DejaVuSans-68" transform="translate(1094.628906 0.684375)"/>
      <use xlink:href="#DejaVuSans-20" transform="translate(1158.007812 0.684375)"/>
      <use xlink:href="#DejaVuSans-67" transform="translate(1189.794922 0.684375)"/>
      <use xlink:href="#DejaVuSans-2212" transform="translate(1254.228516 38.965625) scale(0.7)"/>
      <use xlink:href="#DejaVuSans-31" transform="translate(1312.880859 38.965625) scale(0.7)"/>
      <use xlink:href="#DejaVuSans-29" transform="translate(1360.151367 0.684375)"/>
     </g>
    </g>
   </g>
   <g id="matplotlib.axis_2">
    <g id="ytick_1">
     <g id="line2d_5">
      <defs>
       <path id="m7a7a16d5ad" d="M 0 0 
L -3.5 0 
" style="stroke: #000000; stroke-width: 0.8"/>
      </defs>
      <g>
       <use xlink:href="#m7a7a16d5ad" x="46.339375" y="155.872152" style="stroke: #000000; stroke-width: 0.8"/>
      </g>
     </g>
     <g id="text_6">
      <!-- 1.5 -->
      <g transform="translate(21.845938 160.051292) scale(0.11 -0.11)">
       <defs>
        <path id="DejaVuSans-2e" d="M 684 794 
L 1344 794 
L 1344 0 
L 684 0 
L 684 794 
z
" transform="scale(0.015625)"/>
       </defs>
       <use xlink:href="#DejaVuSans-31"/>
       <use xlink:href="#DejaVuSans-2e" x="63.623047"/>
       <use xlink:href="#DejaVuSans-35" x="95.410156"/>
      </g>
     </g>
    </g>
    <g id="ytick_2">
     <g id="line2d_6">
      <g>
       <use xlink:href="#m7a7a16d5ad" x="46.339375" y="113.876111" style="stroke: #000000; stroke-width: 0.8"/>
      </g>
     </g>
     <g id="text_7">
      <!-- 2.0 -->
      <g transform="translate(21.845938 118.055252) scale(0.11 -0.11)">
       <defs>
        <path id="DejaVuSans-32" d="M 1228 531 
L 3431 531 
L 3431 0 
L 469 0 
L 469 531 
Q 828 903 1448 1529 
Q 2069 2156 2228 2338 
Q 2531 2678 2651 2914 
Q 2772 3150 2772 3378 
Q 2772 3750 2511 3984 
Q 2250 4219 1831 4219 
Q 1534 4219 1204 4116 
Q 875 4013 500 3803 
L 500 4441 
Q 881 4594 1212 4672 
Q 1544 4750 1819 4750 
Q 2544 4750 2975 4387 
Q 3406 4025 3406 3419 
Q 3406 3131 3298 2873 
Q 3191 2616 2906 2266 
Q 2828 2175 2409 1742 
Q 1991 1309 1228 531 
z
" transform="scale(0.015625)"/>
       </defs>
       <use xlink:href="#DejaVuSans-32"/>
       <use xlink:href="#DejaVuSans-2e" x="63.623047"/>
       <use xlink:href="#DejaVuSans-30" x="95.410156"/>
      </g>
     </g>
    </g>
    <g id="ytick_3">
     <g id="line2d_7">
      <g>
       <use xlink:href="#m7a7a16d5ad" x="46.339375" y="71.88007" style="stroke: #000000; stroke-width: 0.8"/>
      </g>
     </g>
     <g id="text_8">
      <!-- 2.5 -->
      <g transform="translate(21.845938 76.059211) scale(0.11 -0.11)">
       <use xlink:href="#DejaVuSans-32"/>
       <use xlink:href="#DejaVuSans-2e" x="63.623047"/>
       <use xlink:href="#DejaVuSans-35" x="95.410156"/>
      </g>
     </g>
    </g>
    <g id="ytick_4">
     <g id="line2d_8">
      <g>
       <use xlink:href="#m7a7a16d5ad" x="46.339375" y="29.88403" style="stroke: #000000; stroke-width: 0.8"/>
      </g>
     </g>
     <g id="text_9">
      <!-- 3.0 -->
      <g transform="translate(21.845938 34.06317) scale(0.11 -0.11)">
       <defs>
        <path id="DejaVuSans-33" d="M 2597 2516 
Q 3050 2419 3304 2112 
Q 3559 1806 3559 1356 
Q 3559 666 3084 287 
Q 2609 -91 1734 -91 
Q 1441 -91 1130 -33 
Q 819 25 488 141 
L 488 750 
Q 750 597 1062 519 
Q 1375 441 1716 441 
Q 2309 441 2620 675 
Q 2931 909 2931 1356 
Q 2931 1769 2642 2001 
Q 2353 2234 1838 2234 
L 1294 2234 
L 1294 2753 
L 1863 2753 
Q 2328 2753 2575 2939 
Q 2822 3125 2822 3475 
Q 2822 3834 2567 4026 
Q 2313 4219 1838 4219 
Q 1578 4219 1281 4162 
Q 984 4106 628 3988 
L 628 4550 
Q 988 4650 1302 4700 
Q 1616 4750 1894 4750 
Q 2613 4750 3031 4423 
Q 3450 4097 3450 3541 
Q 3450 3153 3228 2886 
Q 3006 2619 2597 2516 
z
" transform="scale(0.015625)"/>
       </defs>
       <use xlink:href="#DejaVuSans-33"/>
       <use xlink:href="#DejaVuSans-2e" x="63.623047"/>
       <use xlink:href="#DejaVuSans-30" x="95.410156"/>
      </g>
     </g>
    </g>
    <g id="text_10">
     <!-- Potential (V vs. Li/Li+) -->
     <g transform="translate(15.558281 166.382031) rotate(-90) scale(0.11 -0.11)">
      <defs>
       <path id="DejaVuSans-50" d="M 1259 4147 
L 1259 2394 
L 2053 2394 
Q 2494 2394 2734 2622 
Q 2975 2850 2975 3272 
Q 2975 3691 2734 3919 
Q 2494 4147 2053 4147 
L 1259 4147 
z
M 628 4666 
L 2053 4666 
Q 2838 4666 3239 4311 
Q 3641 3956 3641 3272 
Q 3641 2581 3239 2228 
Q 2838 1875 2053 1875 
L 1259 1875 
L 1259 0 
L 628 0 
L 628 4666 
z
" transform="scale(0.015625)"/>
       <path id="DejaVuSans-6f" d="M 1959 3097 
Q 1497 3097 1228 2736 
Q 959 2375 959 1747 
Q 959 1119 1226 758 
Q 1494 397 1959 397 
Q 2419 397 2687 759 
Q 2956 1122 2956 1747 
Q 2956 2369 2687 2733 
Q 2419 3097 1959 3097 
z
M 1959 3584 
Q 2709 3584 3137 3096 
Q 3566 2609 3566 1747 
Q 3566 888 3137 398 
Q 2709 -91 1959 -91 
Q 1206 -91 779 398 
Q 353 888 353 1747 
Q 353 2609 779 3096 
Q 1206 3584 1959 3584 
z
" transform="scale(0.015625)"/>
       <path id="DejaVuSans-6e" d="M 3513 2113 
L 3513 0 
L 2938 0 
L 2938 2094 
Q 2938 2591 2744 2837 
Q 2550 3084 2163 3084 
Q 1697 3084 1428 2787 
Q 1159 2491 1159 1978 
L 1159 0 
L 581 0 
L 581 3500 
L 1159 3500 
L 1159 2956 
Q 1366 3272 1645 3428 
Q 1925 3584 2291 3584 
Q 2894 3584 3203 3211 
Q 3513 2838 3513 2113 
z
" transform="scale(0.015625)"/>
       <path id="DejaVuSans-6c" d="M 603 4863 
L 1178 4863 
L 1178 0 
L 603 0 
L 603 4863 
z
" transform="scale(0.015625)"/>
       <path id="DejaVuSans-56" d="M 1831 0 
L 50 4666 
L 709 4666 
L 2188 738 
L 3669 4666 
L 4325 4666 
L 2547 0 
L 1831 0 
z
" transform="scale(0.015625)"/>
       <path id="DejaVuSans-76" d="M 191 3500 
L 800 3500 
L 1894 563 
L 2988 3500 
L 3597 3500 
L 2284 0 
L 1503 0 
L 191 3500 
z
" transform="scale(0.015625)"/>
       <path id="DejaVuSans-73" d="M 2834 3397 
L 2834 2853 
Q 2591 2978 2328 3040 
Q 2066 3103 1784 3103 
Q 1356 3103 1142 2972 
Q 928 2841 928 2578 
Q 928 2378 1081 2264 
Q 1234 2150 1697 2047 
L 1894 2003 
Q 2506 1872 2764 1633 
Q 3022 1394 3022 966 
Q 3022 478 2636 193 
Q 2250 -91 1575 -91 
Q 1294 -91 989 -36 
Q 684 19 347 128 
L 347 722 
Q 666 556 975 473 
Q 1284 391 1588 391 
Q 1994 391 2212 530 
Q 2431 669 2431 922 
Q 2431 1156 2273 1281 
Q 2116 1406 1581 1522 
L 1381 1569 
Q 847 1681 609 1914 
Q 372 2147 372 2553 
Q 372 3047 722 3315 
Q 1072 3584 1716 3584 
Q 2034 3584 2315 3537 
Q 2597 3491 2834 3397 
z
" transform="scale(0.015625)"/>
       <path id="DejaVuSans-4c" d="M 628 4666 
L 1259 4666 
L 1259 531 
L 3531 531 
L 3531 0 
L 628 0 
L 628 4666 
z
" transform="scale(0.015625)"/>
       <path id="DejaVuSans-2f" d="M 1625 4666 
L 2156 4666 
L 531 -594 
L 0 -594 
L 1625 4666 
z
" transform="scale(0.015625)"/>
       <path id="DejaVuSans-2b" d="M 2944 4013 
L 2944 2272 
L 4684 2272 
L 4684 1741 
L 2944 1741 
L 2944 0 
L 2419 0 
L 2419 1741 
L 678 1741 
L 678 2272 
L 2419 2272 
L 2419 4013 
L 2944 4013 
z
" transform="scale(0.015625)"/>
      </defs>
      <use xlink:href="#DejaVuSans-50"/>
      <use xlink:href="#DejaVuSans-6f" x="56.677734"/>
      <use xlink:href="#DejaVuSans-74" x="117.859375"/>
      <use xlink:href="#DejaVuSans-65" x="157.068359"/>
      <use xlink:href="#DejaVuSans-6e" x="218.591797"/>
      <use xlink:href="#DejaVuSans-74" x="281.970703"/>
      <use xlink:href="#DejaVuSans-69" x="321.179688"/>
      <use xlink:href="#DejaVuSans-61" x="348.962891"/>
      <use xlink:href="#DejaVuSans-6c" x="410.242188"/>
      <use xlink:href="#DejaVuSans-20" x="438.025391"/>
      <use xlink:href="#DejaVuSans-28" x="469.8125"/>
      <use xlink:href="#DejaVuSans-56" x="508.826172"/>
      <use xlink:href="#DejaVuSans-20" x="577.234375"/>
      <use xlink:href="#DejaVuSans-76" x="609.021484"/>
      <use xlink:href="#DejaVuSans-73" x="668.201172"/>
      <use xlink:href="#DejaVuSans-2e" x="720.300781"/>
      <use xlink:href="#DejaVuSans-20" x="752.087891"/>
      <use xlink:href="#DejaVuSans-4c" x="783.875"/>
      <use xlink:href="#DejaVuSans-69" x="839.587891"/>
      <use xlink:href="#DejaVuSans-2f" x="867.371094"/>
      <use xlink:href="#DejaVuSans-4c" x="901.0625"/>
      <use xlink:href="#DejaVuSans-69" x="956.775391"/>
      <use xlink:href="#DejaVuSans-2b" x="984.558594"/>
      <use xlink:href="#DejaVuSans-29" x="1068.347656"/>
     </g>
    </g>
   </g>
   <g id="line2d_9">
    <path d="M 56.48483 30.982579 
L 56.649084 52.180929 
L 57.223973 82.073753 
L 57.744112 96.709893 
L 58.017869 101.085671 
L 58.045245 99.931191 
L 58.127372 100.290367 
L 61.631447 120.763 
L 61.959955 121.867773 
L 62.343214 122.743256 
L 62.808599 123.355751 
L 63.027603 123.378202 
L 63.164481 122.295889 
L 64.122624 122.640634 
L 64.341628 122.659869 
L 64.588008 122.688728 
L 66.23054 122.703158 
L 74.25156 122.810584 
L 74.68957 122.836252 
L 74.935951 122.823426 
L 75.401337 122.857099 
L 75.75722 122.857099 
L 75.976224 122.87152 
L 76.79749 122.914818 
L 77.098621 122.924427 
L 77.700882 122.951691 
L 78.686401 122.998197 
L 79.179161 123.033465 
L 81.068073 123.137691 
L 81.369204 123.148912 
L 83.121241 123.257951 
L 83.285494 123.26436 
L 83.750879 123.281998 
L 84.134137 123.302845 
L 84.572147 123.322079 
L 84.7364 123.34133 
L 85.639793 123.405466 
L 85.831421 123.405466 
L 86.105177 123.431117 
L 86.433684 123.440743 
L 86.625314 123.463194 
L 86.871695 123.471207 
L 87.0907 123.487241 
L 87.692964 123.524113 
L 88.076223 123.552982 
L 88.459483 123.575433 
L 89.089122 123.605888 
L 89.308127 123.641173 
L 110.934811 124.999275 
L 111.099065 125.016913 
L 111.783454 125.068224 
L 113.672367 125.169241 
L 113.891372 125.198101 
L 114.548387 125.24139 
L 114.71264 125.25262 
L 115.178024 125.279884 
L 116.081418 125.336007 
L 116.409925 125.352033 
L 118.40835 125.489931 
L 118.59998 125.489931 
L 133.519719 126.466423 
L 133.930355 126.500096 
L 134.231489 126.506513 
L 136.886931 126.718156 
L 137.133312 126.718156 
L 137.379693 126.74542 
L 137.735577 126.775884 
L 138.748474 126.85125 
L 139.049606 126.865671 
L 139.487615 126.905769 
L 139.925624 126.936225 
L 144.059335 127.26974 
L 144.223589 127.2954 
L 144.716349 127.341898 
L 144.935354 127.356328 
L 148.521555 127.675405 
L 149.205945 127.731529 
L 149.507077 127.771618 
L 150.246218 127.826137 
L 150.519974 127.87424 
L 151.094862 127.912717 
L 156.487852 128.459488 
L 156.624731 128.462697 
L 157.254367 128.531646 
L 170.03879 130.13508 
L 170.449424 130.192808 
L 170.860059 130.252131 
L 173.707124 130.681851 
L 173.92613 130.729954 
L 174.966405 130.895099 
L 175.349664 130.954431 
L 175.787674 131.031393 
L 176.198308 131.105155 
L 185.53343 132.844883 
L 185.807188 132.896185 
L 186.628465 133.074173 
L 186.956976 133.128692 
L 187.58662 133.268186 
L 188.818532 133.521523 
L 189.147043 133.59048 
L 189.585056 133.693102 
L 189.749311 133.723557 
L 191.254984 134.052269 
L 191.747751 134.153278 
L 192.185766 134.267121 
L 192.596404 134.352112 
L 194.403213 134.772199 
L 194.731722 134.85399 
L 200.152112 136.220113 
L 200.371118 136.282637 
L 201.986283 136.744433 
L 202.232665 136.800549 
L 202.780181 136.964098 
L 203.437199 137.151703 
L 204.367973 137.417874 
L 204.751233 137.538133 
L 205.271372 137.709704 
L 206.612782 138.126582 
L 206.859163 138.206769 
L 209.24085 139.008482 
L 209.62411 139.146372 
L 212.005797 140.005821 
L 212.471185 140.188604 
L 212.799694 140.318481 
L 213.51146 140.597486 
L 215.564636 141.432871 
L 216.41328 141.803268 
L 216.960794 142.042175 
L 217.398805 142.242597 
L 218.38433 142.696373 
L 218.603336 142.810216 
L 219.178228 143.079595 
L 220.519643 143.815576 
L 221.997933 144.62851 
L 222.65495 144.998906 
L 223.175087 145.293937 
L 224.160612 145.904853 
L 225.666275 146.902184 
L 225.994783 147.136287 
L 226.268541 147.325496 
L 226.843431 147.755207 
L 227.144564 147.971672 
L 228.212216 148.791023 
L 230.046393 150.327121 
L 230.539157 150.763249 
L 230.895041 151.099974 
L 231.907943 152.070057 
L 233.194601 153.339975 
L 233.577861 153.744036 
L 236.178553 156.792159 
L 236.50706 157.239518 
L 237.054572 157.938617 
L 237.903214 159.117144 
L 240.832406 163.765492 
L 241.982185 165.870813 
L 242.803453 167.472634 
L 247.621575 178.164339 
L 248.141713 179.320406 
L 248.798729 180.721814 
L 248.968835 181.076168 
L 248.968836 181.060134 
" clip-path="url(#pe2d99c24a1)" style="fill: none; stroke: #1f77b4; stroke-width: 1.5; stroke-linecap: square"/>
   </g>
   <g id="line2d_10">
    <path d="M 56.48483 180.232022 
L 56.649059 176.095908 
L 57.169119 170.641017 
L 58.56507 159.117144 
L 62.123372 134.254295 
L 63.628806 125.927673 
L 64.504695 122.06339 
L 65.353211 118.979991 
L 66.886016 114.74852 
L 67.816648 112.795553 
L 68.446193 111.843108 
L 68.829393 111.312354 
L 69.568423 110.319844 
L 69.623166 110.297393 
L 69.814767 109.806737 
L 70.280083 109.155756 
L 70.718027 108.62501 
L 71.621287 107.638901 
L 72.141345 107.143432 
L 72.989861 106.407468 
L 74.276325 105.422946 
L 76.520794 104.0921 
L 76.767138 104.064845 
L 77.506166 103.732933 
L 83.555262 101.367868 
L 83.88372 101.257225 
L 86.894585 100.317622 
L 88.454761 99.855834 
L 88.701105 99.766046 
L 88.892706 99.717919 
L 89.440135 99.551178 
L 92.013054 98.842452 
L 92.341513 98.741452 
L 92.669972 98.664473 
L 93.025803 98.552235 
L 93.272147 98.500924 
L 93.545862 98.428775 
L 94.148037 98.2556 
L 94.312266 98.22354 
L 95.023924 98.037539 
L 95.32501 97.955756 
L 95.598724 97.89482 
L 96.228266 97.715237 
L 96.474609 97.657526 
L 97.761069 97.315989 
L 98.144269 97.216567 
L 98.390613 97.154044 
L 102.74268 95.98673 
L 103.016395 95.916185 
L 103.344853 95.821593 
L 103.728056 95.728589 
L 103.919658 95.654835 
L 104.193374 95.585886 
L 104.658692 95.459209 
L 105.890416 95.130506 
L 106.79368 94.872348 
L 107.067395 94.806633 
L 107.423226 94.708799 
L 108.052773 94.532416 
L 108.271745 94.477913 
L 109.257123 94.195716 
L 109.640325 94.091482 
L 111.830059 93.477374 
L 112.049033 93.395583 
L 112.678582 93.216016 
L 113.007043 93.11499 
L 113.499736 92.975496 
L 113.746082 92.898534 
L 113.965056 92.835994 
L 114.211401 92.775058 
L 114.676719 92.624351 
L 115.059922 92.521712 
L 115.744215 92.311673 
L 115.908446 92.271584 
L 116.94857 91.944494 
L 117.1128 91.909208 
L 117.550747 91.769714 
L 118.016067 91.635025 
L 118.727729 91.41856 
L 119.001445 91.335181 
L 119.466762 91.184449 
L 120.315284 90.926308 
L 120.698486 90.809257 
L 121.218547 90.648916 
L 121.492264 90.552694 
L 122.970336 90.094114 
L 123.517771 89.922561 
L 123.818859 89.842382 
L 124.749497 89.5281 
L 126.035969 89.106409 
L 126.254943 89.045473 
L 127.650904 88.574059 
L 127.815134 88.524361 
L 130.607053 87.605597 
L 130.853398 87.509401 
L 131.127116 87.416396 
L 132.112496 87.066847 
L 132.304099 86.997889 
L 132.605187 86.917727 
L 133.535825 86.595424 
L 133.864286 86.491207 
L 134.165376 86.377364 
L 136.054028 85.70872 
L 145.825768 82.386413 
L 146.044743 82.325494 
L 148.015527 81.732224 
L 148.234504 81.693739 
L 148.645086 81.560645 
L 148.891436 81.501313 
L 149.192531 81.403513 
L 150.34216 81.089231 
L 164.384117 77.916052 
L 164.822074 77.813422 
L 165.424265 77.680328 
L 165.916965 77.569711 
L 166.272804 77.479915 
L 166.601271 77.410974 
L 169.01004 76.886628 
L 169.229019 76.825709 
L 169.530114 76.777615 
L 170.515521 76.543495 
L 170.871362 76.466542 
L 171.145085 76.400793 
L 172.869546 75.996724 
L 173.088526 75.958255 
L 174.292908 75.645587 
L 174.676121 75.575033 
L 175.031962 75.475603 
L 175.935252 75.273602 
L 177.632342 74.866325 
L 177.906066 74.800576 
L 178.39877 74.681929 
L 178.590376 74.638622 
L 179.302058 74.449413 
L 180.396951 74.176834 
L 180.588559 74.127127 
L 183.106826 73.488964 
L 183.271061 73.466513 
L 183.490042 73.403972 
L 186.364145 72.634319 
L 186.583124 72.552561 
L 187.760136 72.236684 
L 188.553932 72.018607 
L 188.855028 71.928811 
L 191.209057 71.266592 
L 191.783879 71.085404 
L 197.012013 69.451523 
L 197.340481 69.336059 
L 197.55946 69.27514 
L 198.900713 68.834182 
L 199.119693 68.763628 
L 199.804002 68.526334 
L 201.36423 67.992388 
L 201.610582 67.918634 
L 207.933617 65.580824 
L 208.617921 65.340321 
L 209.247485 65.12064 
L 210.807708 64.503323 
L 211.136174 64.379846 
L 211.327779 64.293276 
L 211.546756 64.20028 
L 218.362485 61.410289 
L 218.526719 61.902567 
L 218.773069 61.259566 
L 220.333294 60.465866 
L 220.825996 60.24621 
L 221.20921 60.089069 
L 221.373444 60.013694 
L 221.619795 59.869396 
L 221.89352 59.757157 
L 222.605206 59.428454 
L 224.685515 58.456767 
L 225.205594 58.172974 
L 228.517657 56.547081 
L 228.818752 56.394744 
L 229.03773 56.276105 
L 229.50306 56.040398 
L 229.776784 55.888062 
L 230.023135 55.777428 
L 231.720229 54.87631 
L 231.966581 54.727182 
L 232.158188 54.626173 
L 234.156381 53.462068 
L 234.320616 53.383502 
L 235.087043 52.931339 
L 235.552376 52.655543 
L 235.935591 52.411823 
L 236.264061 52.208184 
L 238.481233 50.776312 
L 238.809702 50.571078 
L 239.056054 50.38989 
L 239.411895 50.17183 
L 239.712992 49.937727 
L 240.944757 48.990103 
L 241.08162 48.897107 
L 241.984912 48.193195 
L 242.231266 48.008807 
L 242.723973 47.609542 
L 242.778719 47.579078 
L 242.806091 47.954279 
L 242.888209 47.619151 
L 243.57252 46.947323 
L 246.118162 44.723356 
L 246.775102 44.112456 
L 247.048828 43.887962 
L 247.404671 43.543225 
L 247.568906 43.403731 
L 248.198473 42.788019 
L 248.444826 42.561929 
L 249.238629 41.822748 
L 249.266001 41.88848 
L 249.484982 42.408005 
L 249.731335 42.529877 
L 249.950316 42.435252 
L 250.141925 42.347077 
L 250.415651 42.255685 
L 251.921139 40.801371 
L 252.003256 40.413336 
L 252.249609 39.516997 
L 252.660198 38.686442 
L 253.454 37.525545 
L 253.56349 37.392468 
L 254.028824 36.832863 
L 254.275176 36.568287 
L 254.466784 36.480113 
L 254.548901 36.513777 
L 254.576273 36.478508 
L 254.98686 36.359844 
L 255.753288 35.740923 
L 256.273364 35.376944 
L 257.204026 34.270566 
L 257.505124 33.808786 
L 259.037988 31.193584 
L 259.393831 29.881963 
L 259.39392 29.891597 
" clip-path="url(#pe2d99c24a1)" style="fill: none; stroke: #1f77b4; stroke-width: 1.5; stroke-linecap: square"/>
   </g>
   <g id="line2d_11">
    <path d="M 56.48483 30.929706 
L 56.704097 51.112801 
L 57.14263 71.479546 
L 57.690796 87.365438 
L 58.047102 92.719026 
L 58.403404 94.791808 
L 59.033785 96.333525 
L 59.499721 97.081155 
L 59.910839 97.859241 
L 60.294549 98.963006 
L 60.67826 100.953963 
L 61.171602 105.588814 
L 62.459765 118.521184 
L 63.117543 122.812717 
L 63.802727 125.747006 
L 64.213837 126.850779 
L 64.542721 127.449181 
L 65.173092 127.991434 
L 65.501982 128.08448 
L 71.696007 126.743278 
L 72.29897 126.675908 
L 72.764893 126.619751 
L 73.313039 126.584457 
L 73.724152 126.520279 
L 73.943413 126.526696 
L 74.327117 126.478569 
L 74.628597 126.467339 
L 75.204154 126.414399 
L 75.724896 126.393535 
L 81.590026 126.152898 
L 81.836694 126.15771 
L 82.247805 126.141659 
L 82.467065 126.144876 
L 82.960402 126.140055 
L 83.398924 126.133638 
L 92.30637 126.228297 
L 92.525632 126.245944 
L 93.758975 126.279633 
L 94.307125 126.311727 
L 94.55379 126.311727 
L 95.129341 126.332582 
L 96.444891 126.388731 
L 96.718968 126.390335 
L 98.226381 126.465743 
L 98.500454 126.470547 
L 121.385623 127.919243 
L 121.741919 127.948119 
L 125.880471 128.286632 
L 126.072322 128.304279 
L 126.428616 128.333156 
L 126.86713 128.371658 
L 128.127881 128.485568 
L 128.347141 128.514444 
L 128.648624 128.520861 
L 132.567862 128.885042 
L 132.759712 128.894668 
L 133.033786 128.931566 
L 133.30786 128.941191 
L 133.773785 128.992527 
L 134.486379 129.061518 
L 135.966403 129.221951 
L 136.213074 129.23959 
L 136.76122 129.286121 
L 137.693075 129.393606 
L 139.200485 129.555635 
L 139.556784 129.586124 
L 140.050114 129.647086 
L 158.001986 131.861041 
L 158.495326 131.950879 
L 159.207926 132.059968 
L 161.099049 132.385648 
L 161.45535 132.446609 
L 161.729428 132.496341 
L 162.085728 132.573345 
L 162.332396 132.610251 
L 162.825732 132.712923 
L 163.044992 132.753037 
L 163.784996 132.900628 
L 164.031668 132.95036 
L 166.525754 133.486213 
L 166.745012 133.551987 
L 167.019084 133.592093 
L 167.320563 133.672306 
L 172.281291 134.947734 
L 172.774625 135.084095 
L 174.720564 135.644003 
L 174.994638 135.721007 
L 175.296118 135.812457 
L 178.475378 136.821572 
L 178.776856 136.913014 
L 180.421307 137.468109 
L 181.380572 137.80181 
L 181.764277 137.942984 
L 182.339837 138.146732 
L 182.805763 138.323207 
L 183.299096 138.499675 
L 183.490949 138.587917 
L 183.655392 138.632836 
L 183.956872 138.753163 
L 185.820578 139.518423 
L 186.039835 139.597031 
L 186.533169 139.810405 
L 187.437624 140.214692 
L 189.712466 141.2591 
L 190.15099 141.475682 
L 190.342844 141.57355 
L 192.508032 142.720621 
L 192.727293 142.836144 
L 196.180642 144.974692 
L 196.509531 145.208912 
L 198.756961 146.911095 
L 199.140666 147.241579 
L 199.716223 147.727683 
L 200.20956 148.189724 
L 200.538449 148.475297 
L 201.388082 149.301518 
L 203.827334 152.016017 
L 204.18363 152.468423 
L 205.033269 153.613899 
L 205.5266 154.323019 
L 206.896965 156.432681 
L 207.911027 158.21186 
L 208.486581 159.286749 
L 210.377681 163.292718 
L 212.981387 169.989121 
L 214.269529 173.69187 
L 216.822714 181.078125 
L 216.822715 181.063687 
" clip-path="url(#pe2d99c24a1)" style="fill: none; stroke: #ff7f0e; stroke-width: 1.5; stroke-linecap: square"/>
   </g>
   <g id="line2d_12">
    <path d="M 56.48483 179.953815 
L 56.648918 174.21488 
L 57.141187 167.460724 
L 58.508607 153.2369 
L 60.258902 137.461684 
L 61.21608 130.075437 
L 62.255297 123.627709 
L 63.18513 119.236704 
L 64.224347 115.537155 
L 65.181519 112.91572 
L 66.138701 110.834909 
L 66.494224 110.170733 
L 67.451404 108.592085 
L 68.271845 107.465861 
L 68.846154 106.753541 
L 69.283726 106.257819 
L 70.596442 104.956715 
L 70.924623 104.680784 
L 71.690375 104.03103 
L 72.07325 103.751874 
L 72.346731 103.538508 
L 73.030429 103.07326 
L 73.249212 102.906409 
L 73.905562 102.479671 
L 75.218257 101.680713 
L 75.464387 101.545948 
L 76.31216 101.082303 
L 78.281211 100.053954 
L 79.101651 99.649658 
L 81.289484 98.618076 
L 81.781747 98.393473 
L 82.000531 98.279571 
L 82.274011 98.165661 
L 82.985057 97.833565 
L 84.051626 97.349073 
L 84.270414 97.246401 
L 85.008818 96.914305 
L 97.069318 91.13397 
L 97.643627 90.835554 
L 98.135893 90.580471 
L 98.84694 90.206681 
L 99.038374 90.11843 
L 103.906268 87.659024 
L 104.070356 87.588437 
L 104.343834 87.477736 
L 105.820637 86.860075 
L 106.039423 86.768641 
L 106.586384 86.56328 
L 107.598258 86.203912 
L 107.981129 86.072364 
L 111.563731 85.125806 
L 111.755169 85.092126 
L 112.220088 85.000692 
L 112.46622 84.941318 
L 115.392452 84.360563 
L 115.747976 84.293176 
L 116.376988 84.18407 
L 116.896599 84.074998 
L 117.14273 84.042896 
L 117.662344 83.940233 
L 118.127267 83.856804 
L 119.029769 83.699587 
L 119.522038 83.614562 
L 120.096346 83.505465 
L 122.557673 83.117203 
L 122.74911 83.083522 
L 123.651593 82.929514 
L 123.897723 82.899034 
L 124.608769 82.794749 
L 124.909599 82.732183 
L 125.702701 82.623086 
L 129.257961 82.104897 
L 129.449396 82.071216 
L 130.707394 81.894732 
L 130.953525 81.854617 
L 133.797716 81.423057 
L 134.0165 81.38296 
L 134.399375 81.338024 
L 138.036713 80.810218 
L 138.392242 80.746039 
L 139.677603 80.563147 
L 140.416007 80.462079 
L 141.427896 80.308071 
L 141.674031 80.261556 
L 142.494479 80.129983 
L 142.685914 80.107531 
L 142.904698 80.081864 
L 143.260222 80.011268 
L 143.533704 79.977579 
L 144.3815 79.836388 
L 144.928464 79.757788 
L 145.721556 79.635857 
L 146.432605 79.525156 
L 147.882031 79.290927 
L 148.182855 79.236391 
L 170.690432 75.15341 
L 171.073306 75.068376 
L 171.374134 75.009027 
L 177.390683 73.69991 
L 177.582119 73.6614 
L 186.087358 71.566175 
L 186.415536 71.468308 
L 187.50945 71.174722 
L 187.728232 71.088092 
L 188.083752 70.998237 
L 189.068258 70.698243 
L 189.25969 70.64369 
L 189.560512 70.542622 
L 190.052771 70.375772 
L 192.049126 69.681099 
L 192.349949 69.559184 
L 192.596077 69.477359 
L 193.307116 69.182161 
L 193.58059 69.079472 
L 194.510393 68.649533 
L 194.701822 68.566104 
L 196.069192 67.89389 
L 196.424713 67.693367 
L 196.616148 67.608342 
L 196.889624 67.460735 
L 201.237895 64.269766 
L 201.620759 63.903981 
L 203.206911 62.179346 
L 203.945297 61.242423 
L 204.218773 60.876646 
L 204.820412 60.027948 
L 205.312666 59.291589 
L 206.297166 57.669618 
L 206.734721 56.920409 
L 207.172274 56.095791 
L 208.895149 52.527791 
L 211.766624 45.162391 
L 212.833175 41.968222 
L 214.309943 37.030152 
L 216.151805 29.878125 
L 216.151806 29.890959 
" clip-path="url(#pe2d99c24a1)" style="fill: none; stroke: #ff7f0e; stroke-width: 1.5; stroke-linecap: square"/>
   </g>
   <g id="patch_3">
    <path d="M 46.339375 188.638125 
L 46.339375 22.318125 
" style="fill: none; stroke: #000000; stroke-width: 0.8; stroke-linejoin: miter; stroke-linecap: square"/>
   </g>
   <g id="patch_4">
    <path d="M 269.539375 188.638125 
L 269.539375 22.318125 
" style="fill: none; stroke: #000000; stroke-width: 0.8; stroke-linejoin: miter; stroke-linecap: square"/>
   </g>
   <g id="patch_5">
    <path d="M 46.339375 188.638125 
L 269.539375 188.638125 
" style="fill: none; stroke: #000000; stroke-width: 0.8; stroke-linejoin: miter; stroke-linecap: square"/>
   </g>
   <g id="patch_6">
    <path d="M 46.339375 22.318125 
L 269.539375 22.318125 
" style="fill: none; stroke: #000000; stroke-width: 0.8; stroke-linejoin: miter; stroke-linecap: square"/>
   </g>
   <g id="text_11">
    <!-- GCD Curves -->
    <g transform="translate(121.74625 16.318125) scale(0.12 -0.12)">
     <defs>
      <path id="DejaVuSans-47" d="M 3809 666 
L 3809 1919 
L 2778 1919 
L 2778 2438 
L 4434 2438 
L 4434 434 
Q 4069 175 3628 42 
Q 3188 -91 2688 -91 
Q 1594 -91 976 548 
Q 359 1188 359 2328 
Q 359 3472 976 4111 
Q 1594 4750 2688 4750 
Q 3144 4750 3555 4637 
Q 3966 4525 4313 4306 
L 4313 3634 
Q 3963 3931 3569 4081 
Q 3175 4231 2741 4231 
Q 1884 4231 1454 3753 
Q 1025 3275 1025 2328 
Q 1025 1384 1454 906 
Q 1884 428 2741 428 
Q 3075 428 3337 486 
Q 3600 544 3809 666 
z
" transform="scale(0.015625)"/>
      <path id="DejaVuSans-44" d="M 1259 4147 
L 1259 519 
L 2022 519 
Q 2988 519 3436 956 
Q 3884 1394 3884 2338 
Q 3884 3275 3436 3711 
Q 2988 4147 2022 4147 
L 1259 4147 
z
M 628 4666 
L 1925 4666 
Q 3281 4666 3915 4102 
Q 4550 3538 4550 2338 
Q 4550 1131 3912 565 
Q 3275 0 1925 0 
L 628 0 
L 628 4666 
z
" transform="scale(0.015625)"/>
      <path id="DejaVuSans-75" d="M 544 1381 
L 544 3500 
L 1119 3500 
L 1119 1403 
Q 1119 906 1312 657 
Q 1506 409 1894 409 
Q 2359 409 2629 706 
Q 2900 1003 2900 1516 
L 2900 3500 
L 3475 3500 
L 3475 0 
L 2900 0 
L 2900 538 
Q 2691 219 2414 64 
Q 2138 -91 1772 -91 
Q 1169 -91 856 284 
Q 544 659 544 1381 
z
M 1991 3584 
L 1991 3584 
z
" transform="scale(0.015625)"/>
      <path id="DejaVuSans-72" d="M 2631 2963 
Q 2534 3019 2420 3045 
Q 2306 3072 2169 3072 
Q 1681 3072 1420 2755 
Q 1159 2438 1159 1844 
L 1159 0 
L 581 0 
L 581 3500 
L 1159 3500 
L 1159 2956 
Q 1341 3275 1631 3429 
Q 1922 3584 2338 3584 
Q 2397 3584 2469 3576 
Q 2541 3569 2628 3553 
L 2631 2963 
z
" transform="scale(0.015625)"/>
     </defs>
     <use xlink:href="#DejaVuSans-47"/>
     <use xlink:href="#DejaVuSans-43" x="77.490234"/>
     <use xlink:href="#DejaVuSans-44" x="147.314453"/>
     <use xlink:href="#DejaVuSans-20" x="224.316406"/>
     <use xlink:href="#DejaVuSans-43" x="256.103516"/>
     <use xlink:href="#DejaVuSans-75" x="325.927734"/>
     <use xlink:href="#DejaVuSans-72" x="389.306641"/>
     <use xlink:href="#DejaVuSans-76" x="430.419922"/>
     <use xlink:href="#DejaVuSans-65" x="489.599609"/>
     <use xlink:href="#DejaVuSans-73" x="551.123047"/>
    </g>
   </g>
   <g id="legend_1">
    <g id="line2d_13">
     <path d="M 62.829844 30.870438 
L 72.829844 30.870438 
L 82.829844 30.870438 
" style="fill: none; stroke: #1f77b4; stroke-width: 1.5; stroke-linecap: square"/>
    </g>
    <g id="text_12">
     <!-- With Iodine -->
     <g transform="translate(90.829844 34.370438) scale(0.1 -0.1)">
      <defs>
       <path id="DejaVuSans-57" d="M 213 4666 
L 850 4666 
L 1831 722 
L 2809 4666 
L 3519 4666 
L 4500 722 
L 5478 4666 
L 6119 4666 
L 4947 0 
L 4153 0 
L 3169 4050 
L 2175 0 
L 1381 0 
L 213 4666 
z
" transform="scale(0.015625)"/>
       <path id="DejaVuSans-49" d="M 628 4666 
L 1259 4666 
L 1259 0 
L 628 0 
L 628 4666 
z
" transform="scale(0.015625)"/>
       <path id="DejaVuSans-64" d="M 2906 2969 
L 2906 4863 
L 3481 4863 
L 3481 0 
L 2906 0 
L 2906 525 
Q 2725 213 2448 61 
Q 2172 -91 1784 -91 
Q 1150 -91 751 415 
Q 353 922 353 1747 
Q 353 2572 751 3078 
Q 1150 3584 1784 3584 
Q 2172 3584 2448 3432 
Q 2725 3281 2906 2969 
z
M 947 1747 
Q 947 1113 1208 752 
Q 1469 391 1925 391 
Q 2381 391 2643 752 
Q 2906 1113 2906 1747 
Q 2906 2381 2643 2742 
Q 2381 3103 1925 3103 
Q 1469 3103 1208 2742 
Q 947 2381 947 1747 
z
" transform="scale(0.015625)"/>
      </defs>
      <use xlink:href="#DejaVuSans-57"/>
      <use xlink:href="#DejaVuSans-69" x="96.626953"/>
      <use xlink:href="#DejaVuSans-74" x="124.410156"/>
      <use xlink:href="#DejaVuSans-68" x="163.619141"/>
      <use xlink:href="#DejaVuSans-20" x="226.998047"/>
      <use xlink:href="#DejaVuSans-49" x="258.785156"/>
      <use xlink:href="#DejaVuSans-6f" x="288.277344"/>
      <use xlink:href="#DejaVuSans-64" x="349.458984"/>
      <use xlink:href="#DejaVuSans-69" x="412.935547"/>
      <use xlink:href="#DejaVuSans-6e" x="440.71875"/>
      <use xlink:href="#DejaVuSans-65" x="504.097656"/>
     </g>
    </g>
    <g id="line2d_14">
     <path d="M 62.829844 45.548563 
L 72.829844 45.548563 
L 82.829844 45.548563 
" style="fill: none; stroke: #ff7f0e; stroke-width: 1.5; stroke-linecap: square"/>
    </g>
    <g id="text_13">
     <!-- Without Iodine -->
     <g transform="translate(90.829844 49.048563) scale(0.1 -0.1)">
      <use xlink:href="#DejaVuSans-57"/>
      <use xlink:href="#DejaVuSans-69" x="96.626953"/>
      <use xlink:href="#DejaVuSans-74" x="124.410156"/>
      <use xlink:href="#DejaVuSans-68" x="163.619141"/>
      <use xlink:href="#DejaVuSans-6f" x="226.998047"/>
      <use xlink:href="#DejaVuSans-75" x="288.179688"/>
      <use xlink:href="#DejaVuSans-74" x="351.558594"/>
      <use xlink:href="#DejaVuSans-20" x="390.767578"/>
      <use xlink:href="#DejaVuSans-49" x="422.554688"/>
      <use xlink:href="#DejaVuSans-6f" x="452.046875"/>
      <use xlink:href="#DejaVuSans-64" x="513.228516"/>
      <use xlink:href="#DejaVuSans-69" x="576.705078"/>
      <use xlink:href="#DejaVuSans-6e" x="604.488281"/>
      <use xlink:href="#DejaVuSans-65" x="667.867188"/>
     </g>
    </g>
   </g>
  </g>
 </g>
 <defs>
  <clipPath id="pe2d99c24a1">
   <rect x="46.339375" y="22.318125" width="223.2" height="166.32"/>
  </clipPath>
 </defs>
</svg>
