<?xml version="1.0" encoding="utf-8" standalone="no"?>
<!DOCTYPE svg PUBLIC "-//W3C//DTD SVG 1.1//EN"
  "http://www.w3.org/Graphics/SVG/1.1/DTD/svg11.dtd">
<svg xmlns:xlink="http://www.w3.org/1999/xlink" width="503.74375pt" height="393.93625pt" viewBox="0 0 503.74375 393.93625" xmlns="http://www.w3.org/2000/svg" version="1.1">
 <metadata>
  <rdf:RDF xmlns:dc="http://purl.org/dc/elements/1.1/" xmlns:cc="http://creativecommons.org/ns#" xmlns:rdf="http://www.w3.org/1999/02/22-rdf-syntax-ns#">
   <cc:Work>
    <dc:type rdf:resource="http://purl.org/dc/dcmitype/StillImage"/>
    <dc:date>2025-11-06T16:56:39.312305</dc:date>
    <dc:format>image/svg+xml</dc:format>
    <dc:creator>
     <cc:Agent>
      <dc:title>Matplotlib v3.8.4, https://matplotlib.org/</dc:title>
     </cc:Agent>
    </dc:creator>
   </cc:Work>
  </rdf:RDF>
 </metadata>
 <defs>
  <style type="text/css">*{stroke-linejoin: round; stroke-linecap: butt}</style>
 </defs>
 <g id="figure_1">
  <g id="patch_1">
   <path d="M 0 393.93625 
L 503.74375 393.93625 
L 503.74375 0 
L 0 0 
L 0 393.93625 
z
" style="fill: none"/>
  </g>
  <g id="axes_1">
   <g id="patch_2">
    <path d="M 50.14375 354.958125 
L 496.54375 354.958125 
L 496.54375 22.318125 
L 50.14375 22.318125 
L 50.14375 354.958125 
z
" style="fill: none"/>
   </g>
   <g id="matplotlib.axis_1">
    <g id="xtick_1">
     <g id="line2d_1">
      <defs>
       <path id="md9a3fea2a7" d="M 0 0 
L 0 3.5 
" style="stroke: #000000; stroke-width: 0.8"/>
      </defs>
      <g>
       <use xlink:href="#md9a3fea2a7" x="70.434655" y="354.958125" style="stroke: #000000; stroke-width: 0.8"/>
      </g>
     </g>
     <g id="text_1">
      <!-- 0 -->
      <g transform="translate(67.253405 369.556562) scale(0.1 -0.1)">
       <defs>
        <path id="DejaVuSans-30" d="M 2034 4250 
Q 1547 4250 1301 3770 
Q 1056 3291 1056 2328 
Q 1056 1369 1301 889 
Q 1547 409 2034 409 
Q 2525 409 2770 889 
Q 3016 1369 3016 2328 
Q 3016 3291 2770 3770 
Q 2525 4250 2034 4250 
z
M 2034 4750 
Q 2819 4750 3233 4129 
Q 3647 3509 3647 2328 
Q 3647 1150 3233 529 
Q 2819 -91 2034 -91 
Q 1250 -91 836 529 
Q 422 1150 422 2328 
Q 422 3509 836 4129 
Q 1250 4750 2034 4750 
z
" transform="scale(0.015625)"/>
       </defs>
       <use xlink:href="#DejaVuSans-30"/>
      </g>
     </g>
    </g>
    <g id="xtick_2">
     <g id="line2d_2">
      <g>
       <use xlink:href="#md9a3fea2a7" x="129.333701" y="354.958125" style="stroke: #000000; stroke-width: 0.8"/>
      </g>
     </g>
     <g id="text_2">
      <!-- 250 -->
      <g transform="translate(119.789951 369.556562) scale(0.1 -0.1)">
       <defs>
        <path id="DejaVuSans-32" d="M 1228 531 
L 3431 531 
L 3431 0 
L 469 0 
L 469 531 
Q 828 903 1448 1529 
Q 2069 2156 2228 2338 
Q 2531 2678 2651 2914 
Q 2772 3150 2772 3378 
Q 2772 3750 2511 3984 
Q 2250 4219 1831 4219 
Q 1534 4219 1204 4116 
Q 875 4013 500 3803 
L 500 4441 
Q 881 4594 1212 4672 
Q 1544 4750 1819 4750 
Q 2544 4750 2975 4387 
Q 3406 4025 3406 3419 
Q 3406 3131 3298 2873 
Q 3191 2616 2906 2266 
Q 2828 2175 2409 1742 
Q 1991 1309 1228 531 
z
" transform="scale(0.015625)"/>
        <path id="DejaVuSans-35" d="M 691 4666 
L 3169 4666 
L 3169 4134 
L 1269 4134 
L 1269 2991 
Q 1406 3038 1543 3061 
Q 1681 3084 1819 3084 
Q 2600 3084 3056 2656 
Q 3513 2228 3513 1497 
Q 3513 744 3044 326 
Q 2575 -91 1722 -91 
Q 1428 -91 1123 -41 
Q 819 9 494 109 
L 494 744 
Q 775 591 1075 516 
Q 1375 441 1709 441 
Q 2250 441 2565 725 
Q 2881 1009 2881 1497 
Q 2881 1984 2565 2268 
Q 2250 2553 1709 2553 
Q 1456 2553 1204 2497 
Q 953 2441 691 2322 
L 691 4666 
z
" transform="scale(0.015625)"/>
       </defs>
       <use xlink:href="#DejaVuSans-32"/>
       <use xlink:href="#DejaVuSans-35" x="63.623047"/>
       <use xlink:href="#DejaVuSans-30" x="127.246094"/>
      </g>
     </g>
    </g>
    <g id="xtick_3">
     <g id="line2d_3">
      <g>
       <use xlink:href="#md9a3fea2a7" x="188.232747" y="354.958125" style="stroke: #000000; stroke-width: 0.8"/>
      </g>
     </g>
     <g id="text_3">
      <!-- 500 -->
      <g transform="translate(178.688997 369.556562) scale(0.1 -0.1)">
       <use xlink:href="#DejaVuSans-35"/>
       <use xlink:href="#DejaVuSans-30" x="63.623047"/>
       <use xlink:href="#DejaVuSans-30" x="127.246094"/>
      </g>
     </g>
    </g>
    <g id="xtick_4">
     <g id="line2d_4">
      <g>
       <use xlink:href="#md9a3fea2a7" x="247.131792" y="354.958125" style="stroke: #000000; stroke-width: 0.8"/>
      </g>
     </g>
     <g id="text_4">
      <!-- 750 -->
      <g transform="translate(237.588042 369.556562) scale(0.1 -0.1)">
       <defs>
        <path id="DejaVuSans-37" d="M 525 4666 
L 3525 4666 
L 3525 4397 
L 1831 0 
L 1172 0 
L 2766 4134 
L 525 4134 
L 525 4666 
z
" transform="scale(0.015625)"/>
       </defs>
       <use xlink:href="#DejaVuSans-37"/>
       <use xlink:href="#DejaVuSans-35" x="63.623047"/>
       <use xlink:href="#DejaVuSans-30" x="127.246094"/>
      </g>
     </g>
    </g>
    <g id="xtick_5">
     <g id="line2d_5">
      <g>
       <use xlink:href="#md9a3fea2a7" x="306.030838" y="354.958125" style="stroke: #000000; stroke-width: 0.8"/>
      </g>
     </g>
     <g id="text_5">
      <!-- 1000 -->
      <g transform="translate(293.305838 369.556562) scale(0.1 -0.1)">
       <defs>
        <path id="DejaVuSans-31" d="M 794 531 
L 1825 531 
L 1825 4091 
L 703 3866 
L 703 4441 
L 1819 4666 
L 2450 4666 
L 2450 531 
L 3481 531 
L 3481 0 
L 794 0 
L 794 531 
z
" transform="scale(0.015625)"/>
       </defs>
       <use xlink:href="#DejaVuSans-31"/>
       <use xlink:href="#DejaVuSans-30" x="63.623047"/>
       <use xlink:href="#DejaVuSans-30" x="127.246094"/>
       <use xlink:href="#DejaVuSans-30" x="190.869141"/>
      </g>
     </g>
    </g>
    <g id="xtick_6">
     <g id="line2d_6">
      <g>
       <use xlink:href="#md9a3fea2a7" x="364.929883" y="354.958125" style="stroke: #000000; stroke-width: 0.8"/>
      </g>
     </g>
     <g id="text_6">
      <!-- 1250 -->
      <g transform="translate(352.204883 369.556562) scale(0.1 -0.1)">
       <use xlink:href="#DejaVuSans-31"/>
       <use xlink:href="#DejaVuSans-32" x="63.623047"/>
       <use xlink:href="#DejaVuSans-35" x="127.246094"/>
       <use xlink:href="#DejaVuSans-30" x="190.869141"/>
      </g>
     </g>
    </g>
    <g id="xtick_7">
     <g id="line2d_7">
      <g>
       <use xlink:href="#md9a3fea2a7" x="423.828929" y="354.958125" style="stroke: #000000; stroke-width: 0.8"/>
      </g>
     </g>
     <g id="text_7">
      <!-- 1500 -->
      <g transform="translate(411.103929 369.556562) scale(0.1 -0.1)">
       <use xlink:href="#DejaVuSans-31"/>
       <use xlink:href="#DejaVuSans-35" x="63.623047"/>
       <use xlink:href="#DejaVuSans-30" x="127.246094"/>
       <use xlink:href="#DejaVuSans-30" x="190.869141"/>
      </g>
     </g>
    </g>
    <g id="xtick_8">
     <g id="line2d_8">
      <g>
       <use xlink:href="#md9a3fea2a7" x="482.727975" y="354.958125" style="stroke: #000000; stroke-width: 0.8"/>
      </g>
     </g>
     <g id="text_8">
      <!-- 1750 -->
      <g transform="translate(470.002975 369.556562) scale(0.1 -0.1)">
       <use xlink:href="#DejaVuSans-31"/>
       <use xlink:href="#DejaVuSans-37" x="63.623047"/>
       <use xlink:href="#DejaVuSans-35" x="127.246094"/>
       <use xlink:href="#DejaVuSans-30" x="190.869141"/>
      </g>
     </g>
    </g>
    <g id="text_9">
     <!-- Specific Capacity (mAh g$^{-1}$) -->
     <g transform="translate(203.34375 384.63625) scale(0.1 -0.1)">
      <defs>
       <path id="DejaVuSans-53" d="M 3425 4513 
L 3425 3897 
Q 3066 4069 2747 4153 
Q 2428 4238 2131 4238 
Q 1616 4238 1336 4038 
Q 1056 3838 1056 3469 
Q 1056 3159 1242 3001 
Q 1428 2844 1947 2747 
L 2328 2669 
Q 3034 2534 3370 2195 
Q 3706 1856 3706 1288 
Q 3706 609 3251 259 
Q 2797 -91 1919 -91 
Q 1588 -91 1214 -16 
Q 841 59 441 206 
L 441 856 
Q 825 641 1194 531 
Q 1563 422 1919 422 
Q 2459 422 2753 634 
Q 3047 847 3047 1241 
Q 3047 1584 2836 1778 
Q 2625 1972 2144 2069 
L 1759 2144 
Q 1053 2284 737 2584 
Q 422 2884 422 3419 
Q 422 4038 858 4394 
Q 1294 4750 2059 4750 
Q 2388 4750 2728 4690 
Q 3069 4631 3425 4513 
z
" transform="scale(0.015625)"/>
       <path id="DejaVuSans-70" d="M 1159 525 
L 1159 -1331 
L 581 -1331 
L 581 3500 
L 1159 3500 
L 1159 2969 
Q 1341 3281 1617 3432 
Q 1894 3584 2278 3584 
Q 2916 3584 3314 3078 
Q 3713 2572 3713 1747 
Q 3713 922 3314 415 
Q 2916 -91 2278 -91 
Q 1894 -91 1617 61 
Q 1341 213 1159 525 
z
M 3116 1747 
Q 3116 2381 2855 2742 
Q 2594 3103 2138 3103 
Q 1681 3103 1420 2742 
Q 1159 2381 1159 1747 
Q 1159 1113 1420 752 
Q 1681 391 2138 391 
Q 2594 391 2855 752 
Q 3116 1113 3116 1747 
z
" transform="scale(0.015625)"/>
       <path id="DejaVuSans-65" d="M 3597 1894 
L 3597 1613 
L 953 1613 
Q 991 1019 1311 708 
Q 1631 397 2203 397 
Q 2534 397 2845 478 
Q 3156 559 3463 722 
L 3463 178 
Q 3153 47 2828 -22 
Q 2503 -91 2169 -91 
Q 1331 -91 842 396 
Q 353 884 353 1716 
Q 353 2575 817 3079 
Q 1281 3584 2069 3584 
Q 2775 3584 3186 3129 
Q 3597 2675 3597 1894 
z
M 3022 2063 
Q 3016 2534 2758 2815 
Q 2500 3097 2075 3097 
Q 1594 3097 1305 2825 
Q 1016 2553 972 2059 
L 3022 2063 
z
" transform="scale(0.015625)"/>
       <path id="DejaVuSans-63" d="M 3122 3366 
L 3122 2828 
Q 2878 2963 2633 3030 
Q 2388 3097 2138 3097 
Q 1578 3097 1268 2742 
Q 959 2388 959 1747 
Q 959 1106 1268 751 
Q 1578 397 2138 397 
Q 2388 397 2633 464 
Q 2878 531 3122 666 
L 3122 134 
Q 2881 22 2623 -34 
Q 2366 -91 2075 -91 
Q 1284 -91 818 406 
Q 353 903 353 1747 
Q 353 2603 823 3093 
Q 1294 3584 2113 3584 
Q 2378 3584 2631 3529 
Q 2884 3475 3122 3366 
z
" transform="scale(0.015625)"/>
       <path id="DejaVuSans-69" d="M 603 3500 
L 1178 3500 
L 1178 0 
L 603 0 
L 603 3500 
z
M 603 4863 
L 1178 4863 
L 1178 4134 
L 603 4134 
L 603 4863 
z
" transform="scale(0.015625)"/>
       <path id="DejaVuSans-66" d="M 2375 4863 
L 2375 4384 
L 1825 4384 
Q 1516 4384 1395 4259 
Q 1275 4134 1275 3809 
L 1275 3500 
L 2222 3500 
L 2222 3053 
L 1275 3053 
L 1275 0 
L 697 0 
L 697 3053 
L 147 3053 
L 147 3500 
L 697 3500 
L 697 3744 
Q 697 4328 969 4595 
Q 1241 4863 1831 4863 
L 2375 4863 
z
" transform="scale(0.015625)"/>
       <path id="DejaVuSans-20" transform="scale(0.015625)"/>
       <path id="DejaVuSans-43" d="M 4122 4306 
L 4122 3641 
Q 3803 3938 3442 4084 
Q 3081 4231 2675 4231 
Q 1875 4231 1450 3742 
Q 1025 3253 1025 2328 
Q 1025 1406 1450 917 
Q 1875 428 2675 428 
Q 3081 428 3442 575 
Q 3803 722 4122 1019 
L 4122 359 
Q 3791 134 3420 21 
Q 3050 -91 2638 -91 
Q 1578 -91 968 557 
Q 359 1206 359 2328 
Q 359 3453 968 4101 
Q 1578 4750 2638 4750 
Q 3056 4750 3426 4639 
Q 3797 4528 4122 4306 
z
" transform="scale(0.015625)"/>
       <path id="DejaVuSans-61" d="M 2194 1759 
Q 1497 1759 1228 1600 
Q 959 1441 959 1056 
Q 959 750 1161 570 
Q 1363 391 1709 391 
Q 2188 391 2477 730 
Q 2766 1069 2766 1631 
L 2766 1759 
L 2194 1759 
z
M 3341 1997 
L 3341 0 
L 2766 0 
L 2766 531 
Q 2569 213 2275 61 
Q 1981 -91 1556 -91 
Q 1019 -91 701 211 
Q 384 513 384 1019 
Q 384 1609 779 1909 
Q 1175 2209 1959 2209 
L 2766 2209 
L 2766 2266 
Q 2766 2663 2505 2880 
Q 2244 3097 1772 3097 
Q 1472 3097 1187 3025 
Q 903 2953 641 2809 
L 641 3341 
Q 956 3463 1253 3523 
Q 1550 3584 1831 3584 
Q 2591 3584 2966 3190 
Q 3341 2797 3341 1997 
z
" transform="scale(0.015625)"/>
       <path id="DejaVuSans-74" d="M 1172 4494 
L 1172 3500 
L 2356 3500 
L 2356 3053 
L 1172 3053 
L 1172 1153 
Q 1172 725 1289 603 
Q 1406 481 1766 481 
L 2356 481 
L 2356 0 
L 1766 0 
Q 1100 0 847 248 
Q 594 497 594 1153 
L 594 3053 
L 172 3053 
L 172 3500 
L 594 3500 
L 594 4494 
L 1172 4494 
z
" transform="scale(0.015625)"/>
       <path id="DejaVuSans-79" d="M 2059 -325 
Q 1816 -950 1584 -1140 
Q 1353 -1331 966 -1331 
L 506 -1331 
L 506 -850 
L 844 -850 
Q 1081 -850 1212 -737 
Q 1344 -625 1503 -206 
L 1606 56 
L 191 3500 
L 800 3500 
L 1894 763 
L 2988 3500 
L 3597 3500 
L 2059 -325 
z
" transform="scale(0.015625)"/>
       <path id="DejaVuSans-28" d="M 1984 4856 
Q 1566 4138 1362 3434 
Q 1159 2731 1159 2009 
Q 1159 1288 1364 580 
Q 1569 -128 1984 -844 
L 1484 -844 
Q 1016 -109 783 600 
Q 550 1309 550 2009 
Q 550 2706 781 3412 
Q 1013 4119 1484 4856 
L 1984 4856 
z
" transform="scale(0.015625)"/>
       <path id="DejaVuSans-6d" d="M 3328 2828 
Q 3544 3216 3844 3400 
Q 4144 3584 4550 3584 
Q 5097 3584 5394 3201 
Q 5691 2819 5691 2113 
L 5691 0 
L 5113 0 
L 5113 2094 
Q 5113 2597 4934 2840 
Q 4756 3084 4391 3084 
Q 3944 3084 3684 2787 
Q 3425 2491 3425 1978 
L 3425 0 
L 2847 0 
L 2847 2094 
Q 2847 2600 2669 2842 
Q 2491 3084 2119 3084 
Q 1678 3084 1418 2786 
Q 1159 2488 1159 1978 
L 1159 0 
L 581 0 
L 581 3500 
L 1159 3500 
L 1159 2956 
Q 1356 3278 1631 3431 
Q 1906 3584 2284 3584 
Q 2666 3584 2933 3390 
Q 3200 3197 3328 2828 
z
" transform="scale(0.015625)"/>
       <path id="DejaVuSans-41" d="M 2188 4044 
L 1331 1722 
L 3047 1722 
L 2188 4044 
z
M 1831 4666 
L 2547 4666 
L 4325 0 
L 3669 0 
L 3244 1197 
L 1141 1197 
L 716 0 
L 50 0 
L 1831 4666 
z
" transform="scale(0.015625)"/>
       <path id="DejaVuSans-68" d="M 3513 2113 
L 3513 0 
L 2938 0 
L 2938 2094 
Q 2938 2591 2744 2837 
Q 2550 3084 2163 3084 
Q 1697 3084 1428 2787 
Q 1159 2491 1159 1978 
L 1159 0 
L 581 0 
L 581 4863 
L 1159 4863 
L 1159 2956 
Q 1366 3272 1645 3428 
Q 1925 3584 2291 3584 
Q 2894 3584 3203 3211 
Q 3513 2838 3513 2113 
z
" transform="scale(0.015625)"/>
       <path id="DejaVuSans-67" d="M 2906 1791 
Q 2906 2416 2648 2759 
Q 2391 3103 1925 3103 
Q 1463 3103 1205 2759 
Q 947 2416 947 1791 
Q 947 1169 1205 825 
Q 1463 481 1925 481 
Q 2391 481 2648 825 
Q 2906 1169 2906 1791 
z
M 3481 434 
Q 3481 -459 3084 -895 
Q 2688 -1331 1869 -1331 
Q 1566 -1331 1297 -1286 
Q 1028 -1241 775 -1147 
L 775 -588 
Q 1028 -725 1275 -790 
Q 1522 -856 1778 -856 
Q 2344 -856 2625 -561 
Q 2906 -266 2906 331 
L 2906 616 
Q 2728 306 2450 153 
Q 2172 0 1784 0 
Q 1141 0 747 490 
Q 353 981 353 1791 
Q 353 2603 747 3093 
Q 1141 3584 1784 3584 
Q 2172 3584 2450 3431 
Q 2728 3278 2906 2969 
L 2906 3500 
L 3481 3500 
L 3481 434 
z
" transform="scale(0.015625)"/>
       <path id="DejaVuSans-2212" d="M 678 2272 
L 4684 2272 
L 4684 1741 
L 678 1741 
L 678 2272 
z
" transform="scale(0.015625)"/>
       <path id="DejaVuSans-29" d="M 513 4856 
L 1013 4856 
Q 1481 4119 1714 3412 
Q 1947 2706 1947 2009 
Q 1947 1309 1714 600 
Q 1481 -109 1013 -844 
L 513 -844 
Q 928 -128 1133 580 
Q 1338 1288 1338 2009 
Q 1338 2731 1133 3434 
Q 928 4138 513 4856 
z
" transform="scale(0.015625)"/>
      </defs>
      <use xlink:href="#DejaVuSans-53" transform="translate(0 0.684375)"/>
      <use xlink:href="#DejaVuSans-70" transform="translate(63.476562 0.684375)"/>
      <use xlink:href="#DejaVuSans-65" transform="translate(126.953125 0.684375)"/>
      <use xlink:href="#DejaVuSans-63" transform="translate(188.476562 0.684375)"/>
      <use xlink:href="#DejaVuSans-69" transform="translate(243.457031 0.684375)"/>
      <use xlink:href="#DejaVuSans-66" transform="translate(271.240234 0.684375)"/>
      <use xlink:href="#DejaVuSans-69" transform="translate(306.445312 0.684375)"/>
      <use xlink:href="#DejaVuSans-63" transform="translate(334.228516 0.684375)"/>
      <use xlink:href="#DejaVuSans-20" transform="translate(389.208984 0.684375)"/>
      <use xlink:href="#DejaVuSans-43" transform="translate(420.996094 0.684375)"/>
      <use xlink:href="#DejaVuSans-61" transform="translate(490.820312 0.684375)"/>
      <use xlink:href="#DejaVuSans-70" transform="translate(552.099609 0.684375)"/>
      <use xlink:href="#DejaVuSans-61" transform="translate(615.576172 0.684375)"/>
      <use xlink:href="#DejaVuSans-63" transform="translate(676.855469 0.684375)"/>
      <use xlink:href="#DejaVuSans-69" transform="translate(731.835938 0.684375)"/>
      <use xlink:href="#DejaVuSans-74" transform="translate(759.619141 0.684375)"/>
      <use xlink:href="#DejaVuSans-79" transform="translate(798.828125 0.684375)"/>
      <use xlink:href="#DejaVuSans-20" transform="translate(858.007812 0.684375)"/>
      <use xlink:href="#DejaVuSans-28" transform="translate(889.794922 0.684375)"/>
      <use xlink:href="#DejaVuSans-6d" transform="translate(928.808594 0.684375)"/>
      <use xlink:href="#DejaVuSans-41" transform="translate(1026.220703 0.684375)"/>
      <use xlink:href="#DejaVuSans-68" transform="translate(1094.628906 0.684375)"/>
      <use xlink:href="#DejaVuSans-20" transform="translate(1158.007812 0.684375)"/>
      <use xlink:href="#DejaVuSans-67" transform="translate(1189.794922 0.684375)"/>
      <use xlink:href="#DejaVuSans-2212" transform="translate(1254.228516 38.965625) scale(0.7)"/>
      <use xlink:href="#DejaVuSans-31" transform="translate(1312.880859 38.965625) scale(0.7)"/>
      <use xlink:href="#DejaVuSans-29" transform="translate(1360.151367 0.684375)"/>
     </g>
    </g>
   </g>
   <g id="matplotlib.axis_2">
    <g id="ytick_1">
     <g id="line2d_9">
      <defs>
       <path id="mbd98d68bae" d="M 0 0 
L -3.5 0 
" style="stroke: #000000; stroke-width: 0.8"/>
      </defs>
      <g>
       <use xlink:href="#mbd98d68bae" x="50.14375" y="331.422219" style="stroke: #000000; stroke-width: 0.8"/>
      </g>
     </g>
     <g id="text_10">
      <!-- 1.25 -->
      <g transform="translate(20.878125 335.221438) scale(0.1 -0.1)">
       <defs>
        <path id="DejaVuSans-2e" d="M 684 794 
L 1344 794 
L 1344 0 
L 684 0 
L 684 794 
z
" transform="scale(0.015625)"/>
       </defs>
       <use xlink:href="#DejaVuSans-31"/>
       <use xlink:href="#DejaVuSans-2e" x="63.623047"/>
       <use xlink:href="#DejaVuSans-32" x="95.410156"/>
       <use xlink:href="#DejaVuSans-35" x="159.033203"/>
      </g>
     </g>
    </g>
    <g id="ytick_2">
     <g id="line2d_10">
      <g>
       <use xlink:href="#mbd98d68bae" x="50.14375" y="289.426179" style="stroke: #000000; stroke-width: 0.8"/>
      </g>
     </g>
     <g id="text_11">
      <!-- 1.50 -->
      <g transform="translate(20.878125 293.225397) scale(0.1 -0.1)">
       <use xlink:href="#DejaVuSans-31"/>
       <use xlink:href="#DejaVuSans-2e" x="63.623047"/>
       <use xlink:href="#DejaVuSans-35" x="95.410156"/>
       <use xlink:href="#DejaVuSans-30" x="159.033203"/>
      </g>
     </g>
    </g>
    <g id="ytick_3">
     <g id="line2d_11">
      <g>
       <use xlink:href="#mbd98d68bae" x="50.14375" y="247.430138" style="stroke: #000000; stroke-width: 0.8"/>
      </g>
     </g>
     <g id="text_12">
      <!-- 1.75 -->
      <g transform="translate(20.878125 251.229357) scale(0.1 -0.1)">
       <use xlink:href="#DejaVuSans-31"/>
       <use xlink:href="#DejaVuSans-2e" x="63.623047"/>
       <use xlink:href="#DejaVuSans-37" x="95.410156"/>
       <use xlink:href="#DejaVuSans-35" x="159.033203"/>
      </g>
     </g>
    </g>
    <g id="ytick_4">
     <g id="line2d_12">
      <g>
       <use xlink:href="#mbd98d68bae" x="50.14375" y="205.434097" style="stroke: #000000; stroke-width: 0.8"/>
      </g>
     </g>
     <g id="text_13">
      <!-- 2.00 -->
      <g transform="translate(20.878125 209.233316) scale(0.1 -0.1)">
       <use xlink:href="#DejaVuSans-32"/>
       <use xlink:href="#DejaVuSans-2e" x="63.623047"/>
       <use xlink:href="#DejaVuSans-30" x="95.410156"/>
       <use xlink:href="#DejaVuSans-30" x="159.033203"/>
      </g>
     </g>
    </g>
    <g id="ytick_5">
     <g id="line2d_13">
      <g>
       <use xlink:href="#mbd98d68bae" x="50.14375" y="163.438056" style="stroke: #000000; stroke-width: 0.8"/>
      </g>
     </g>
     <g id="text_14">
      <!-- 2.25 -->
      <g transform="translate(20.878125 167.237275) scale(0.1 -0.1)">
       <use xlink:href="#DejaVuSans-32"/>
       <use xlink:href="#DejaVuSans-2e" x="63.623047"/>
       <use xlink:href="#DejaVuSans-32" x="95.410156"/>
       <use xlink:href="#DejaVuSans-35" x="159.033203"/>
      </g>
     </g>
    </g>
    <g id="ytick_6">
     <g id="line2d_14">
      <g>
       <use xlink:href="#mbd98d68bae" x="50.14375" y="121.442016" style="stroke: #000000; stroke-width: 0.8"/>
      </g>
     </g>
     <g id="text_15">
      <!-- 2.50 -->
      <g transform="translate(20.878125 125.241234) scale(0.1 -0.1)">
       <use xlink:href="#DejaVuSans-32"/>
       <use xlink:href="#DejaVuSans-2e" x="63.623047"/>
       <use xlink:href="#DejaVuSans-35" x="95.410156"/>
       <use xlink:href="#DejaVuSans-30" x="159.033203"/>
      </g>
     </g>
    </g>
    <g id="ytick_7">
     <g id="line2d_15">
      <g>
       <use xlink:href="#mbd98d68bae" x="50.14375" y="79.445975" style="stroke: #000000; stroke-width: 0.8"/>
      </g>
     </g>
     <g id="text_16">
      <!-- 2.75 -->
      <g transform="translate(20.878125 83.245194) scale(0.1 -0.1)">
       <use xlink:href="#DejaVuSans-32"/>
       <use xlink:href="#DejaVuSans-2e" x="63.623047"/>
       <use xlink:href="#DejaVuSans-37" x="95.410156"/>
       <use xlink:href="#DejaVuSans-35" x="159.033203"/>
      </g>
     </g>
    </g>
    <g id="ytick_8">
     <g id="line2d_16">
      <g>
       <use xlink:href="#mbd98d68bae" x="50.14375" y="37.449934" style="stroke: #000000; stroke-width: 0.8"/>
      </g>
     </g>
     <g id="text_17">
      <!-- 3.00 -->
      <g transform="translate(20.878125 41.249153) scale(0.1 -0.1)">
       <defs>
        <path id="DejaVuSans-33" d="M 2597 2516 
Q 3050 2419 3304 2112 
Q 3559 1806 3559 1356 
Q 3559 666 3084 287 
Q 2609 -91 1734 -91 
Q 1441 -91 1130 -33 
Q 819 25 488 141 
L 488 750 
Q 750 597 1062 519 
Q 1375 441 1716 441 
Q 2309 441 2620 675 
Q 2931 909 2931 1356 
Q 2931 1769 2642 2001 
Q 2353 2234 1838 2234 
L 1294 2234 
L 1294 2753 
L 1863 2753 
Q 2328 2753 2575 2939 
Q 2822 3125 2822 3475 
Q 2822 3834 2567 4026 
Q 2313 4219 1838 4219 
Q 1578 4219 1281 4162 
Q 984 4106 628 3988 
L 628 4550 
Q 988 4650 1302 4700 
Q 1616 4750 1894 4750 
Q 2613 4750 3031 4423 
Q 3450 4097 3450 3541 
Q 3450 3153 3228 2886 
Q 3006 2619 2597 2516 
z
" transform="scale(0.015625)"/>
       </defs>
       <use xlink:href="#DejaVuSans-33"/>
       <use xlink:href="#DejaVuSans-2e" x="63.623047"/>
       <use xlink:href="#DejaVuSans-30" x="95.410156"/>
       <use xlink:href="#DejaVuSans-30" x="159.033203"/>
      </g>
     </g>
    </g>
    <g id="text_18">
     <!-- Potential (V vs. Li/Li+) -->
     <g transform="translate(14.798438 244.005312) rotate(-90) scale(0.1 -0.1)">
      <defs>
       <path id="DejaVuSans-50" d="M 1259 4147 
L 1259 2394 
L 2053 2394 
Q 2494 2394 2734 2622 
Q 2975 2850 2975 3272 
Q 2975 3691 2734 3919 
Q 2494 4147 2053 4147 
L 1259 4147 
z
M 628 4666 
L 2053 4666 
Q 2838 4666 3239 4311 
Q 3641 3956 3641 3272 
Q 3641 2581 3239 2228 
Q 2838 1875 2053 1875 
L 1259 1875 
L 1259 0 
L 628 0 
L 628 4666 
z
" transform="scale(0.015625)"/>
       <path id="DejaVuSans-6f" d="M 1959 3097 
Q 1497 3097 1228 2736 
Q 959 2375 959 1747 
Q 959 1119 1226 758 
Q 1494 397 1959 397 
Q 2419 397 2687 759 
Q 2956 1122 2956 1747 
Q 2956 2369 2687 2733 
Q 2419 3097 1959 3097 
z
M 1959 3584 
Q 2709 3584 3137 3096 
Q 3566 2609 3566 1747 
Q 3566 888 3137 398 
Q 2709 -91 1959 -91 
Q 1206 -91 779 398 
Q 353 888 353 1747 
Q 353 2609 779 3096 
Q 1206 3584 1959 3584 
z
" transform="scale(0.015625)"/>
       <path id="DejaVuSans-6e" d="M 3513 2113 
L 3513 0 
L 2938 0 
L 2938 2094 
Q 2938 2591 2744 2837 
Q 2550 3084 2163 3084 
Q 1697 3084 1428 2787 
Q 1159 2491 1159 1978 
L 1159 0 
L 581 0 
L 581 3500 
L 1159 3500 
L 1159 2956 
Q 1366 3272 1645 3428 
Q 1925 3584 2291 3584 
Q 2894 3584 3203 3211 
Q 3513 2838 3513 2113 
z
" transform="scale(0.015625)"/>
       <path id="DejaVuSans-6c" d="M 603 4863 
L 1178 4863 
L 1178 0 
L 603 0 
L 603 4863 
z
" transform="scale(0.015625)"/>
       <path id="DejaVuSans-56" d="M 1831 0 
L 50 4666 
L 709 4666 
L 2188 738 
L 3669 4666 
L 4325 4666 
L 2547 0 
L 1831 0 
z
" transform="scale(0.015625)"/>
       <path id="DejaVuSans-76" d="M 191 3500 
L 800 3500 
L 1894 563 
L 2988 3500 
L 3597 3500 
L 2284 0 
L 1503 0 
L 191 3500 
z
" transform="scale(0.015625)"/>
       <path id="DejaVuSans-73" d="M 2834 3397 
L 2834 2853 
Q 2591 2978 2328 3040 
Q 2066 3103 1784 3103 
Q 1356 3103 1142 2972 
Q 928 2841 928 2578 
Q 928 2378 1081 2264 
Q 1234 2150 1697 2047 
L 1894 2003 
Q 2506 1872 2764 1633 
Q 3022 1394 3022 966 
Q 3022 478 2636 193 
Q 2250 -91 1575 -91 
Q 1294 -91 989 -36 
Q 684 19 347 128 
L 347 722 
Q 666 556 975 473 
Q 1284 391 1588 391 
Q 1994 391 2212 530 
Q 2431 669 2431 922 
Q 2431 1156 2273 1281 
Q 2116 1406 1581 1522 
L 1381 1569 
Q 847 1681 609 1914 
Q 372 2147 372 2553 
Q 372 3047 722 3315 
Q 1072 3584 1716 3584 
Q 2034 3584 2315 3537 
Q 2597 3491 2834 3397 
z
" transform="scale(0.015625)"/>
       <path id="DejaVuSans-4c" d="M 628 4666 
L 1259 4666 
L 1259 531 
L 3531 531 
L 3531 0 
L 628 0 
L 628 4666 
z
" transform="scale(0.015625)"/>
       <path id="DejaVuSans-2f" d="M 1625 4666 
L 2156 4666 
L 531 -594 
L 0 -594 
L 1625 4666 
z
" transform="scale(0.015625)"/>
       <path id="DejaVuSans-2b" d="M 2944 4013 
L 2944 2272 
L 4684 2272 
L 4684 1741 
L 2944 1741 
L 2944 0 
L 2419 0 
L 2419 1741 
L 678 1741 
L 678 2272 
L 2419 2272 
L 2419 4013 
L 2944 4013 
z
" transform="scale(0.015625)"/>
      </defs>
      <use xlink:href="#DejaVuSans-50"/>
      <use xlink:href="#DejaVuSans-6f" x="56.677734"/>
      <use xlink:href="#DejaVuSans-74" x="117.859375"/>
      <use xlink:href="#DejaVuSans-65" x="157.068359"/>
      <use xlink:href="#DejaVuSans-6e" x="218.591797"/>
      <use xlink:href="#DejaVuSans-74" x="281.970703"/>
      <use xlink:href="#DejaVuSans-69" x="321.179688"/>
      <use xlink:href="#DejaVuSans-61" x="348.962891"/>
      <use xlink:href="#DejaVuSans-6c" x="410.242188"/>
      <use xlink:href="#DejaVuSans-20" x="438.025391"/>
      <use xlink:href="#DejaVuSans-28" x="469.8125"/>
      <use xlink:href="#DejaVuSans-56" x="508.826172"/>
      <use xlink:href="#DejaVuSans-20" x="577.234375"/>
      <use xlink:href="#DejaVuSans-76" x="609.021484"/>
      <use xlink:href="#DejaVuSans-73" x="668.201172"/>
      <use xlink:href="#DejaVuSans-2e" x="720.300781"/>
      <use xlink:href="#DejaVuSans-20" x="752.087891"/>
      <use xlink:href="#DejaVuSans-4c" x="783.875"/>
      <use xlink:href="#DejaVuSans-69" x="839.587891"/>
      <use xlink:href="#DejaVuSans-2f" x="867.371094"/>
      <use xlink:href="#DejaVuSans-4c" x="901.0625"/>
      <use xlink:href="#DejaVuSans-69" x="956.775391"/>
      <use xlink:href="#DejaVuSans-2b" x="984.558594"/>
      <use xlink:href="#DejaVuSans-29" x="1068.347656"/>
     </g>
    </g>
   </g>
   <g id="line2d_17">
    <path d="M 70.434659 39.647033 
L 70.598913 70.184723 
L 71.091675 102.304756 
L 71.748692 135.361099 
L 73.007975 172.25615 
L 73.500738 179.853217 
L 73.555489 177.544258 
L 73.610241 177.614794 
L 74.212506 181.498336 
L 74.650516 184.384506 
L 76.95007 197.465315 
L 79.249614 212.518359 
L 80.180382 217.056081 
L 81.439662 221.593787 
L 81.932423 222.757884 
L 82.917944 224.229845 
L 83.465456 224.601846 
L 83.520207 224.43828 
L 83.684459 222.344206 
L 83.903463 222.299304 
L 84.505725 222.591126 
L 85.27224 222.870114 
L 87.079024 223.094608 
L 87.352779 223.113842 
L 88.228795 223.13951 
L 88.4478 223.113842 
L 90.802096 223.06254 
L 90.966349 223.06254 
L 92.663631 223.06254 
L 92.992137 223.046497 
L 93.375393 223.052914 
L 93.75865 223.046497 
L 94.087157 223.043306 
L 94.306162 223.046497 
L 95.23693 223.030472 
L 95.510685 223.046497 
L 96.167695 223.052914 
L 97.591219 223.065748 
L 98.083978 223.084999 
L 98.576736 223.075357 
L 98.959993 223.088191 
L 100.274017 223.117051 
L 100.766776 223.142702 
L 101.04053 223.133093 
L 102.026048 223.155536 
L 102.245052 223.158744 
L 102.792561 223.184396 
L 103.285319 223.187604 
L 103.723327 223.200438 
L 104.818346 223.24534 
L 105.146853 223.261383 
L 105.749116 223.290226 
L 110.183964 223.485843 
L 110.348217 223.479426 
L 110.840977 223.489069 
L 111.169483 223.517928 
L 111.388487 223.540371 
L 112.209752 223.546771 
L 112.483507 223.591673 
L 112.866763 223.585256 
L 113.688029 223.636575 
L 114.618797 223.691103 
L 114.947303 223.675061 
L 115.111557 223.70392 
L 115.987576 223.735972 
L 116.261333 223.784099 
L 116.918347 223.793708 
L 117.137351 223.812959 
L 117.411106 223.84501 
L 117.739612 223.848219 
L 119.436894 223.957257 
L 119.874902 223.928398 
L 120.203409 223.9797 
L 121.955445 224.07913 
L 122.338703 224.095155 
L 122.886215 224.149683 
L 123.10522 224.133641 
L 123.324225 224.152875 
L 123.707483 224.197777 
L 123.871736 224.200985 
L 124.364496 224.223428 
L 125.076261 224.255496 
L 125.459519 224.249079 
L 125.623772 224.293981 
L 147.359958 225.676138 
L 147.96222 225.730649 
L 148.181224 225.717832 
L 161.595238 226.586898 
L 161.814243 226.615741 
L 163.347278 226.705545 
L 163.566282 226.737597 
L 163.94954 226.747239 
L 164.935062 226.817792 
L 165.482574 226.840235 
L 165.865832 226.885137 
L 166.194338 226.87872 
L 166.906102 226.939631 
L 167.563115 226.968508 
L 189.025574 228.296154 
L 189.189827 228.321805 
L 190.120596 228.385941 
L 190.394352 228.379541 
L 190.668108 228.430843 
L 191.215623 228.450078 
L 191.54413 228.488546 
L 191.763136 228.469329 
L 191.92739 228.469329 
L 192.310649 228.517422 
L 193.296174 228.597585 
L 193.569931 228.584767 
L 194.281699 228.661738 
L 194.500705 228.652112 
L 196.471756 228.777176 
L 197.019271 228.81887 
L 215.634707 230.002201 
L 215.908464 230.018243 
L 216.729735 230.063146 
L 217.112994 230.104839 
L 217.277248 230.104839 
L 217.660507 230.13049 
L 218.098518 230.162542 
L 218.372274 230.172184 
L 218.810286 230.204235 
L 226.311238 230.739769 
L 226.639746 230.75902 
L 227.351515 230.819948 
L 227.680024 230.823156 
L 228.008532 230.861641 
L 228.446542 230.874459 
L 228.829801 230.906544 
L 229.158309 230.932195 
L 229.432066 230.977097 
L 229.97958 231.012357 
L 230.417592 231.038025 
L 230.910353 231.079702 
L 231.238862 231.118187 
L 231.512619 231.111787 
L 232.224386 231.172715 
L 232.607646 231.2176 
L 233.045655 231.227225 
L 233.483665 231.275336 
L 235.673714 231.432468 
L 236.002221 231.461328 
L 238.411269 231.653754 
L 238.630273 231.650545 
L 238.904028 231.682597 
L 239.615792 231.749942 
L 239.99905 231.769193 
L 240.218054 231.791635 
L 240.929821 231.85898 
L 241.477334 231.900674 
L 241.805841 231.932742 
L 242.353353 231.968002 
L 242.572358 232.006487 
L 243.11987 232.041781 
L 246.076431 232.307935 
L 246.240685 232.291909 
L 246.459689 232.31116 
L 246.733445 232.327186 
L 247.445211 232.394531 
L 247.664215 232.420182 
L 251.004035 232.715212 
L 251.332542 232.756906 
L 251.825303 232.772932 
L 252.208561 232.840277 
L 252.427566 232.853094 
L 255.219875 233.074379 
L 255.384128 233.10003 
L 259.983231 233.55221 
L 260.256987 233.55221 
L 265.896359 234.129454 
L 266.115363 234.132663 
L 268.305406 234.360348 
L 268.852919 234.414859 
L 269.236178 234.459745 
L 294.0385 237.46137 
L 294.367008 237.499872 
L 298.637605 238.099541 
L 298.966114 238.150844 
L 303.236709 238.811458 
L 303.455715 238.853152 
L 304.55074 239.003884 
L 304.714994 239.045578 
L 304.988751 239.077629 
L 305.317259 239.141782 
L 306.357535 239.298915 
L 306.740794 239.363051 
L 307.562064 239.507366 
L 307.83582 239.536209 
L 308.054826 239.577903 
L 308.711841 239.69655 
L 310.792386 240.033291 
L 311.120894 240.081385 
L 312.215917 240.305862 
L 312.544424 240.334722 
L 313.146686 240.446969 
L 313.420443 240.491854 
L 313.913204 240.57845 
L 314.570219 240.674655 
L 315.227234 240.799736 
L 316.048502 240.934425 
L 316.267506 241.00817 
L 316.596013 241.03703 
L 317.143525 241.14286 
L 319.607337 241.620691 
L 319.826344 241.649551 
L 322.125913 242.095297 
L 322.399672 242.15945 
L 322.782934 242.226795 
L 323.823216 242.438438 
L 324.096973 242.496157 
L 324.534986 242.573128 
L 328.531859 243.37164 
L 328.805618 243.442194 
L 329.024625 243.47747 
L 329.407888 243.525564 
L 329.681646 243.618577 
L 330.283915 243.730807 
L 330.776682 243.820595 
L 331.214697 243.916799 
L 331.597959 243.990561 
L 332.090724 244.125251 
L 332.309731 244.147694 
L 335.92334 244.923747 
L 336.087595 244.926955 
L 336.689864 245.039202 
L 336.963622 245.12899 
L 338.387166 245.433663 
L 340.631991 245.930728 
L 341.070006 246.020499 
L 341.398517 246.094277 
L 342.274546 246.305921 
L 342.548305 246.337972 
L 342.767312 246.424568 
L 342.98632 246.463053 
L 343.643341 246.623394 
L 344.245611 246.742041 
L 344.628873 246.851096 
L 354.648388 249.291503 
L 354.867394 249.342839 
L 355.633915 249.548065 
L 356.783697 249.855913 
L 357.166957 249.977769 
L 357.769224 250.122101 
L 357.98823 250.189446 
L 359.247512 250.548613 
L 359.466518 250.580681 
L 359.740275 250.676869 
L 360.452042 250.869294 
L 360.725799 250.955873 
L 361.16381 251.090563 
L 363.244368 251.648556 
L 363.463374 251.731943 
L 363.791883 251.837757 
L 364.503652 252.030183 
L 366.310448 252.549707 
L 366.638957 252.681172 
L 366.912714 252.751708 
L 367.405477 252.905649 
L 367.843489 253.033922 
L 368.171998 253.130126 
L 368.445755 253.223122 
L 368.993271 253.393105 
L 369.650288 253.617582 
L 370.197802 253.781132 
L 370.581061 253.902988 
L 371.785592 254.284614 
L 372.333107 254.48984 
L 372.606864 254.560394 
L 373.26388 254.781679 
L 375.61819 255.580192 
L 376.165705 255.801461 
L 376.384711 255.852763 
L 378.301012 256.539029 
L 378.465266 256.583931 
L 379.39604 256.920655 
L 379.615045 256.984791 
L 380.436317 257.295848 
L 381.586097 257.74161 
L 382.462122 258.103986 
L 382.626377 258.126429 
L 382.900134 258.264327 
L 383.338145 258.399016 
L 383.611902 258.540123 
L 383.995161 258.681213 
L 384.871179 259.027546 
L 385.528193 259.284108 
L 385.856701 259.441257 
L 386.623221 259.71062 
L 387.115984 259.935097 
L 387.499244 260.082621 
L 390.455815 261.371799 
L 390.620069 261.416667 
L 391.277086 261.730949 
L 391.660346 261.904124 
L 393.850401 262.920713 
L 396.752233 264.344547 
L 396.971239 264.459986 
L 402.00838 267.240359 
L 402.829651 267.698939 
L 402.993906 267.814378 
L 403.760424 268.260124 
L 404.034181 268.410856 
L 404.636446 268.786065 
L 405.019705 269.032985 
L 406.662245 270.052767 
L 406.88125 270.197099 
L 409.783076 272.194951 
L 413.341918 274.8278 
L 414.327444 275.651948 
L 414.436947 275.716101 
L 421.8284 282.354314 
L 425.770505 286.433457 
L 426.263268 286.99785 
L 428.562825 289.710878 
L 429.712603 291.153963 
L 430.369618 291.978127 
L 430.917131 292.696461 
L 433.161926 295.75903 
L 438.363296 303.86598 
L 439.841581 306.485995 
L 440.170089 307.076056 
L 441.538872 309.619101 
L 442.524394 311.552851 
L 444.221681 314.964945 
L 444.933446 316.459349 
L 445.480958 317.607403 
L 447.725769 322.55882 
L 448.218532 323.729334 
L 448.601792 324.611201 
L 451.667873 331.685568 
L 452.489144 333.545539 
L 455.40267 339.834211 
L 455.402673 339.802143 
" clip-path="url(#p4528a15430)" style="fill: none; stroke: #1f77b4; stroke-width: 1.5; stroke-linecap: square"/>
   </g>
   <g id="line2d_18">
    <path d="M 70.43466 338.14592 
L 70.598889 332.33014 
L 71.091577 325.942072 
L 72.295928 314.56731 
L 73.773992 302.342716 
L 79.084075 263.360042 
L 81.602257 246.851096 
L 84.175182 232.282284 
L 85.379529 226.452208 
L 86.912333 220.0994 
L 88.609365 214.246865 
L 90.251659 209.577662 
L 91.729719 206.066138 
L 92.660351 204.093919 
L 94.466871 201.207716 
L 94.850072 200.71386 
L 95.17853 200.220003 
L 95.506987 199.806308 
L 96.766076 197.975197 
L 97.258763 197.035561 
L 99.338999 194.405987 
L 99.831687 193.896054 
L 100.65283 193.014188 
L 102.623578 191.179868 
L 102.897292 190.952182 
L 103.663695 190.304368 
L 105.853421 188.649624 
L 106.40085 188.271239 
L 106.784051 187.998651 
L 107.112509 187.806209 
L 107.386224 187.600999 
L 108.043141 187.177696 
L 110.287614 185.862884 
L 111.437218 185.635198 
L 111.656189 185.471632 
L 112.094132 185.311308 
L 112.532076 185.125316 
L 113.298476 184.807826 
L 113.517448 184.69877 
L 113.681677 184.64426 
L 114.064878 184.448659 
L 114.393336 184.339587 
L 114.776537 184.150403 
L 116.583056 183.400001 
L 116.802028 183.323014 
L 118.663284 182.579045 
L 118.936998 182.463607 
L 119.210713 182.380203 
L 120.141344 181.998593 
L 120.469802 181.905597 
L 120.688774 181.812601 
L 122.495293 181.177638 
L 122.769008 181.071791 
L 123.535408 180.789594 
L 123.918609 180.654921 
L 127.805358 179.388186 
L 128.079073 179.314458 
L 128.845475 179.073905 
L 129.995078 178.71158 
L 130.433023 178.544805 
L 131.08994 178.362005 
L 131.527885 178.208064 
L 132.020573 178.070149 
L 132.51326 177.903425 
L 132.677489 177.877757 
L 133.170175 177.733458 
L 133.553376 177.624437 
L 133.881834 177.508981 
L 134.374522 177.393542 
L 134.648238 177.262061 
L 135.140926 177.169082 
L 135.414641 177.040776 
L 135.633612 177.005499 
L 135.852584 176.925337 
L 136.837957 176.643123 
L 137.221158 176.540519 
L 138.534988 176.194152 
L 139.410874 175.927981 
L 144.064036 174.642029 
L 144.228266 174.62602 
L 144.666211 174.497731 
L 144.994671 174.42716 
L 148.333991 173.548502 
L 148.607705 173.471515 
L 149.045647 173.362494 
L 149.921532 173.112348 
L 150.140504 173.080297 
L 150.414218 172.996926 
L 151.673306 172.656977 
L 152.11125 172.522287 
L 153.041881 172.313852 
L 153.644052 172.118252 
L 153.917767 172.070091 
L 154.355711 171.932209 
L 154.629426 171.896966 
L 154.848398 171.826396 
L 156.326456 171.396692 
L 156.490685 171.355016 
L 157.585546 171.05676 
L 157.968749 170.960555 
L 158.297209 170.902836 
L 158.570924 170.825866 
L 159.008868 170.678342 
L 159.22784 170.66875 
L 159.392069 170.627056 
L 160.267957 170.389745 
L 160.541672 170.28069 
L 161.746015 169.982467 
L 161.964987 169.908706 
L 162.40293 169.812501 
L 162.676645 169.719488 
L 165.359059 168.997946 
L 165.578032 168.927392 
L 165.851748 168.853647 
L 166.344437 168.702898 
L 166.618154 168.638779 
L 167.329816 168.459187 
L 170.121725 167.699143 
L 170.450184 167.619014 
L 172.694654 166.996868 
L 173.023113 166.903872 
L 175.158098 166.300994 
L 175.541301 166.201564 
L 175.869759 166.121402 
L 176.307704 165.98352 
L 178.552178 165.342157 
L 180.139737 164.889977 
L 180.468197 164.813007 
L 180.687171 164.74887 
L 197.219676 159.823088 
L 197.383906 159.778185 
L 198.697742 159.351707 
L 199.245174 159.188141 
L 202.091828 158.280607 
L 202.256058 158.232479 
L 202.58452 158.120266 
L 203.405672 157.870104 
L 203.898364 157.735414 
L 204.993232 157.360221 
L 205.157462 157.341004 
L 205.595408 157.167829 
L 206.088099 157.049148 
L 206.361817 156.946544 
L 207.730403 156.491172 
L 208.113608 156.388567 
L 208.442069 156.266678 
L 208.989504 156.103112 
L 209.208478 155.997299 
L 209.701169 155.862609 
L 212.219373 155.057662 
L 212.438347 154.967892 
L 212.766808 154.829994 
L 212.985781 154.794767 
L 214.025908 154.425958 
L 214.409112 154.297685 
L 214.682828 154.182213 
L 214.956545 154.102034 
L 215.394492 153.95451 
L 215.941927 153.784561 
L 217.52949 153.242627 
L 218.13167 153.059827 
L 219.883462 152.460123 
L 220.321408 152.303008 
L 241.069202 145.097142 
L 241.288176 145.023414 
L 242.43779 144.641771 
L 243.642148 144.260178 
L 244.025353 144.131889 
L 245.612925 143.583504 
L 245.8319 143.52261 
L 246.707803 143.214729 
L 246.981522 143.157026 
L 247.474217 142.971034 
L 247.638448 142.926132 
L 247.912168 142.842744 
L 249.390255 142.406607 
L 249.609231 142.313594 
L 250.101926 142.198172 
L 250.594622 142.024998 
L 251.196807 141.845406 
L 251.689503 141.707508 
L 252.839127 141.354741 
L 259.572661 139.472327 
L 259.791636 139.424216 
L 262.309869 138.773211 
L 262.474102 138.753976 
L 263.733227 138.417286 
L 263.897461 138.378784 
L 265.430303 138.032434 
L 266.032491 137.910561 
L 266.306213 137.840025 
L 273.039799 136.368047 
L 273.477756 136.259042 
L 274.079947 136.098718 
L 274.298926 136.060233 
L 274.901116 135.951161 
L 276.598199 135.559959 
L 277.309876 135.415644 
L 278.51425 135.175107 
L 278.89746 135.091737 
L 279.171181 135.021183 
L 279.937604 134.873693 
L 286.17849 133.481894 
L 286.342724 133.485103 
L 286.616447 133.376081 
L 286.999659 133.347205 
L 287.218638 133.267026 
L 287.382871 133.254208 
L 287.601849 133.212498 
L 288.149296 133.065008 
L 289.29893 132.821296 
L 289.682141 132.705824 
L 290.448563 132.574326 
L 290.777031 132.507015 
L 291.598202 132.32744 
L 293.569017 131.87526 
L 294.225953 131.705294 
L 294.335442 131.708485 
L 294.609166 131.621906 
L 295.156613 131.509676 
L 295.485081 131.455132 
L 295.649315 131.397429 
L 295.868294 131.352527 
L 296.744207 131.140901 
L 297.017932 131.099207 
L 298.058083 130.897155 
L 298.386552 130.791342 
L 298.660277 130.74644 
L 300.521596 130.310286 
L 301.123788 130.182013 
L 315.247944 126.779544 
L 315.521668 126.721792 
L 317.985178 126.099713 
L 318.313648 126.054794 
L 318.477883 125.993832 
L 319.299057 125.756521 
L 319.572782 125.698835 
L 320.174977 125.538477 
L 321.926815 125.121574 
L 322.419517 124.996493 
L 322.747986 124.941999 
L 323.076456 124.836186 
L 324.335594 124.505879 
L 324.554574 124.473794 
L 324.883044 124.345521 
L 325.813706 124.133861 
L 326.251665 124.018422 
L 331.726145 122.517618 
L 331.999869 122.447048 
L 334.29914 121.812085 
L 334.737098 121.680637 
L 335.886742 121.32147 
L 336.105722 121.276551 
L 336.598427 121.161096 
L 348.204336 117.681673 
L 348.368571 117.591869 
L 348.642296 117.524507 
L 349.299236 117.280796 
L 349.463471 117.255128 
L 349.737195 117.149315 
L 350.996325 116.748454 
L 351.543771 116.546453 
L 351.708005 116.527169 
L 352.310197 116.331568 
L 353.076626 116.084665 
L 353.569331 115.88258 
L 353.788311 115.850512 
L 354.718977 115.526621 
L 356.525557 114.904526 
L 356.908769 114.805079 
L 357.346727 114.638355 
L 357.565706 114.590244 
L 357.894175 114.461971 
L 358.332135 114.308014 
L 358.496369 114.266354 
L 359.372288 113.961681 
L 359.810246 113.814191 
L 360.52193 113.564029 
L 360.740909 113.499892 
L 360.905144 113.435756 
L 361.178868 113.329943 
L 362.219019 112.989993 
L 362.492744 112.874571 
L 362.875959 112.752699 
L 363.149683 112.672503 
L 364.51831 112.14342 
L 364.901526 112.053599 
L 365.175252 111.915718 
L 366.160661 111.595036 
L 366.48913 111.473164 
L 366.981833 111.287155 
L 367.584027 111.062677 
L 367.857752 110.947256 
L 368.295712 110.751604 
L 368.952651 110.511118 
L 369.281121 110.373203 
L 370.157039 110.068547 
L 370.540254 109.882555 
L 370.813979 109.789542 
L 371.361428 109.619576 
L 371.635153 109.488095 
L 372.237344 109.302103 
L 372.565811 109.170605 
L 373.989166 108.619029 
L 374.865075 108.327223 
L 375.193543 108.202142 
L 375.522012 108.064261 
L 376.616906 107.650566 
L 376.78114 107.592864 
L 377.00012 107.519085 
L 377.383334 107.390812 
L 378.04027 107.143876 
L 378.368738 107.002786 
L 379.408882 106.566649 
L 379.737348 106.441568 
L 379.901581 106.358214 
L 380.394279 106.175447 
L 380.996469 105.928477 
L 381.160703 105.867566 
L 382.255597 105.447471 
L 382.584066 105.287113 
L 392.16441 101.272124 
L 392.438135 101.143834 
L 392.985584 100.90654 
L 394.189971 100.502454 
L 394.408949 101.397205 
L 394.518438 101.487009 
L 394.901649 100.300419 
L 395.394349 99.912409 
L 396.598733 99.315931 
L 396.981947 99.120331 
L 397.146182 99.07862 
L 397.58414 98.889386 
L 397.803119 98.777172 
L 412.474756 91.779775 
L 414.062358 90.95882 
L 414.555059 90.766428 
L 415.04776 90.455355 
L 415.211993 90.410469 
L 417.292291 89.329726 
L 417.675504 89.146943 
L 418.332443 88.823053 
L 418.606167 88.672337 
L 418.825147 88.572941 
L 420.193773 87.80648 
L 420.522244 87.617296 
L 421.343418 87.165116 
L 423.697446 85.827828 
L 423.916426 85.705989 
L 432.128171 80.799491 
L 432.292406 80.693627 
L 432.785112 80.344102 
L 436.726748 77.69521 
L 437.109963 77.406597 
L 439.464005 75.60757 
L 439.682985 75.42477 
L 443.022437 72.840031 
L 443.077183 73.590433 
L 443.131928 73.196007 
L 443.405653 72.714967 
L 443.679378 72.426354 
L 444.062592 72.057528 
L 444.445806 71.72082 
L 447.018823 69.440754 
L 447.456783 69.087988 
L 452.986027 64.094877 
L 453.314497 63.790254 
L 454.792614 62.392055 
L 455.942258 61.327371 
L 456.599199 62.67746 
L 456.982415 62.683843 
L 457.420377 62.558829 
L 458.843754 61.869305 
L 460.595593 60.192151 
L 461.307277 59.284617 
L 461.416767 59.088982 
L 461.635748 57.6908 
L 462.347434 55.84042 
L 464.318256 52.813127 
L 465.413157 51.376477 
L 465.632137 51.248187 
L 466.179588 50.622832 
L 466.508057 50.71262 
L 466.836526 50.606823 
L 466.891271 50.542654 
L 467.000761 50.69982 
L 469.081067 49.122028 
L 469.135812 49.198999 
L 469.300046 49.134845 
L 469.409536 49.080318 
L 469.68326 48.788529 
L 469.79275 48.727601 
L 470.121219 48.317082 
L 470.394942 48.076579 
L 471.873052 46.223008 
L 472.146777 45.76122 
L 472.365757 45.466206 
L 472.748974 44.87937 
L 473.405917 43.991036 
L 473.679644 43.484345 
L 473.789134 43.365715 
L 474.227094 42.650573 
L 474.281839 42.621696 
L 474.555564 41.919422 
L 475.103015 40.809819 
L 475.540975 40.069043 
L 476.033681 38.042314 
L 476.252661 37.445802 
L 476.252841 37.46507 
" clip-path="url(#p4528a15430)" style="fill: none; stroke: #1f77b4; stroke-width: 1.5; stroke-linecap: square"/>
   </g>
   <g id="line2d_19">
    <path d="M 70.43466 39.541287 
L 70.653927 64.534962 
L 71.147277 95.190123 
L 71.805077 122.607843 
L 72.572511 145.953794 
L 73.175489 158.560468 
L 73.614021 163.575551 
L 74.052545 166.315726 
L 74.710334 168.654805 
L 75.971099 171.05807 
L 77.396309 173.666679 
L 77.999282 175.434645 
L 78.328178 176.762997 
L 78.931154 180.398376 
L 79.534127 185.907568 
L 82.38453 214.724243 
L 83.316383 221.131864 
L 84.412675 226.740553 
L 85.563788 230.629387 
L 86.550441 232.580237 
L 87.537107 233.526777 
L 88.140074 233.805917 
L 88.414148 233.821959 
L 88.688226 233.860478 
L 89.455632 233.805917 
L 90.113409 233.613424 
L 90.332668 233.58453 
L 90.935627 233.379187 
L 91.154884 233.298957 
L 96.471858 231.842249 
L 96.6363 231.835832 
L 97.019996 231.745977 
L 97.677757 231.636905 
L 98.390344 231.502131 
L 98.774047 231.444379 
L 101.131088 231.139554 
L 101.953312 231.065759 
L 102.117756 231.014423 
L 102.282198 231.011215 
L 102.611084 230.969504 
L 103.0496 230.927794 
L 103.871818 230.831522 
L 104.200709 230.825122 
L 104.694045 230.738492 
L 104.858489 230.757743 
L 105.022933 230.728867 
L 105.187379 230.725658 
L 107.325156 230.584484 
L 108.421459 230.49463 
L 108.750349 230.478587 
L 110.723657 230.327771 
L 110.942915 230.350247 
L 111.819939 230.30852 
L 113.409538 230.231516 
L 114.451 230.189806 
L 114.944331 230.157721 
L 115.766546 230.125636 
L 116.09543 230.11601 
L 116.369501 230.106401 
L 116.862831 230.103176 
L 117.08209 230.090342 
L 117.410982 230.080717 
L 118.013945 230.064674 
L 118.233205 230.055049 
L 119.000612 230.032589 
L 119.329498 230.045423 
L 120.480607 230.006904 
L 120.754681 229.990862 
L 121.248018 229.99407 
L 121.85098 229.990862 
L 122.179869 229.984462 
L 123.330988 229.958794 
L 125.085079 229.955585 
L 125.797671 229.929917 
L 126.236191 229.942751 
L 126.45545 229.933109 
L 126.784336 229.949151 
L 127.058409 229.910666 
L 127.332481 229.936317 
L 127.551742 229.913875 
L 128.264332 229.929917 
L 136.979927 230.016547 
L 137.254001 230.039006 
L 137.692522 230.035781 
L 138.405115 230.061466 
L 138.624375 230.061466 
L 139.117712 230.090342 
L 139.556236 230.071091 
L 140.268839 230.087134 
L 143.831827 230.215474 
L 144.105902 230.196223 
L 144.599241 230.247575 
L 144.873319 230.231516 
L 145.750361 230.289286 
L 146.024435 230.26681 
L 146.18888 230.27966 
L 146.517766 230.286061 
L 146.901466 230.305328 
L 152.985913 230.565217 
L 153.314802 230.5588 
L 153.643689 230.587676 
L 155.836274 230.674306 
L 156.000718 230.693557 
L 157.974058 230.783411 
L 158.302948 230.799454 
L 158.631838 230.812288 
L 158.960731 230.837956 
L 160.11185 230.857207 
L 160.331111 230.918151 
L 160.550375 230.911751 
L 161.482247 230.972713 
L 162.633365 231.014423 
L 188.286728 232.599488 
L 188.45117 232.666866 
L 188.615613 232.631573 
L 191.246708 232.852959 
L 191.411152 232.849751 
L 191.904482 232.88827 
L 192.068924 232.913938 
L 192.726695 232.920338 
L 192.891135 232.955648 
L 195.083708 233.106447 
L 195.467408 233.144949 
L 195.851108 233.199494 
L 196.34444 233.218745 
L 196.563695 233.218745 
L 197.385911 233.305391 
L 197.60517 233.311808 
L 198.043682 233.35031 
L 198.811083 233.417688 
L 199.085154 233.436939 
L 203.689615 233.786682 
L 203.908877 233.828393 
L 208.074826 234.162094 
L 208.3489 234.181344 
L 211.747409 234.48936 
L 211.966669 234.492569 
L 212.295558 234.508611 
L 212.843714 234.563156 
L 213.994838 234.662619 
L 214.707433 234.749249 
L 214.981505 234.733223 
L 215.14595 234.774933 
L 215.365211 234.78135 
L 216.077796 234.848746 
L 216.625936 234.893648 
L 217.064456 234.941775 
L 219.969646 235.195263 
L 220.188905 235.227365 
L 220.737045 235.256242 
L 221.230375 235.317186 
L 221.723701 235.349271 
L 221.99777 235.397415 
L 222.217026 235.381373 
L 222.436282 235.432692 
L 222.710352 235.435901 
L 223.258498 235.519322 
L 223.587386 235.525755 
L 224.19035 235.593134 
L 225.341458 235.699014 
L 225.615531 235.747158 
L 225.834793 235.759992 
L 226.492574 235.81452 
L 226.98591 235.87229 
L 233.234854 236.523632 
L 233.454113 236.520423 
L 235.043746 236.703324 
L 235.482267 236.716158 
L 236.085231 236.802788 
L 236.304492 236.828456 
L 237.071898 236.915085 
L 237.291155 236.921502 
L 237.729672 236.985672 
L 238.168186 237.017757 
L 268.206743 240.646719 
L 268.919336 240.762225 
L 269.083782 240.765433 
L 272.263038 241.224265 
L 272.591927 241.285227 
L 273.688233 241.44246 
L 274.017127 241.490587 
L 274.510469 241.583634 
L 274.674916 241.606093 
L 275.551961 241.747267 
L 276.26456 241.849956 
L 276.593448 241.917334 
L 278.73124 242.267061 
L 279.224577 242.385792 
L 279.443838 242.417877 
L 279.937176 242.498089 
L 281.033488 242.713059 
L 281.581641 242.822164 
L 283.280908 243.12378 
L 283.664613 243.223243 
L 284.157948 243.300247 
L 284.815728 243.460689 
L 284.980176 243.476731 
L 286.186123 243.723786 
L 287.392055 243.977257 
L 287.77576 244.047844 
L 287.995022 244.124865 
L 288.159469 244.128073 
L 288.543172 244.227537 
L 289.036506 244.314166 
L 289.200951 244.359102 
L 289.475025 244.439297 
L 299.5061 246.88429 
L 299.670544 246.958086 
L 299.889803 246.983754 
L 300.547586 247.189097 
L 300.876474 247.26931 
L 303.617218 248.013715 
L 303.891294 248.090736 
L 306.029094 248.690725 
L 306.632055 248.892877 
L 307.563905 249.15599 
L 308.276498 249.377377 
L 309.098721 249.630848 
L 311.510578 250.365644 
L 312.003913 250.529278 
L 312.223175 250.60309 
L 312.606879 250.721787 
L 312.771325 250.766706 
L 313.429099 251.000944 
L 313.812799 251.126075 
L 316.937239 252.136802 
L 317.211315 252.245891 
L 318.800955 252.784935 
L 319.623184 253.070508 
L 320.006887 253.224533 
L 320.445404 253.368916 
L 321.157999 253.606344 
L 321.541707 253.773203 
L 322.528378 254.122946 
L 322.747637 254.19995 
L 323.076526 254.32829 
L 323.624676 254.536842 
L 334.916577 259.282395 
L 336.944748 260.244994 
L 337.218825 260.334849 
L 337.492903 260.508108 
L 338.69884 261.120948 
L 340.069207 261.810808 
L 340.452913 262.006527 
L 341.275134 262.452525 
L 342.481063 263.123118 
L 342.645509 263.18087 
L 342.919585 263.354163 
L 348.127025 266.508234 
L 348.51073 266.774556 
L 348.675174 266.874019 
L 354.047061 270.772495 
L 356.294484 272.623865 
L 356.458929 272.765056 
L 356.787817 273.066654 
L 356.897447 273.137241 
L 357.390784 273.599282 
L 361.556718 277.651782 
L 363.968565 280.334187 
L 364.40708 280.863606 
L 364.790781 281.328855 
L 369.943381 288.442379 
L 373.451498 294.391169 
L 376.79518 301.061904 
L 377.398137 302.41594 
L 379.152212 306.468424 
L 385.127019 322.508341 
L 391.110427 339.838125 
L 391.11043 339.809249 
" clip-path="url(#p4528a15430)" style="fill: none; stroke: #ff7f0e; stroke-width: 1.5; stroke-linecap: square"/>
   </g>
   <g id="line2d_20">
    <path d="M 70.43466 337.589506 
L 70.598748 329.461441 
L 71.091012 320.945736 
L 71.911465 310.719851 
L 73.333583 295.52061 
L 75.247967 276.852833 
L 78.748547 246.406207 
L 80.881679 231.283937 
L 82.522554 222.116907 
L 83.616478 217.079381 
L 85.038567 211.618283 
L 85.694913 209.446063 
L 86.734121 206.381813 
L 89.414227 200.031911 
L 90.015881 198.831933 
L 91.984936 195.456426 
L 95.923059 190.29696 
L 96.196544 190.027446 
L 97.782741 188.426373 
L 98.165612 188.050928 
L 99.314246 187.043443 
L 100.134695 186.324706 
L 104.455686 183.151367 
L 104.729167 182.994134 
L 106.588823 181.816565 
L 106.97169 181.614447 
L 108.99542 180.433669 
L 109.159504 180.34704 
L 109.979931 179.859298 
L 110.144016 179.814396 
L 110.690972 179.480712 
L 111.07384 179.304245 
L 111.292623 179.211165 
L 111.839581 178.887106 
L 112.16776 178.739532 
L 113.097595 178.258207 
L 113.863336 177.876396 
L 114.300902 177.664618 
L 114.683774 177.465675 
L 115.613606 177.038945 
L 115.887084 176.884903 
L 116.324652 176.679576 
L 116.59813 176.531985 
L 117.25448 176.233578 
L 117.582654 176.057094 
L 117.965523 175.912728 
L 118.293696 175.736211 
L 119.223529 175.309497 
L 119.715793 175.081677 
L 120.481535 174.7191 
L 129.232914 170.727561 
L 130.053348 170.348925 
L 130.381524 170.185325 
L 130.819089 169.983156 
L 132.405275 169.254794 
L 132.788144 169.075135 
L 135.030677 168.051607 
L 135.413552 167.862272 
L 146.133988 162.725283 
L 146.516865 162.491029 
L 146.680956 162.458944 
L 147.665504 161.948776 
L 147.829595 161.900632 
L 148.048383 161.743432 
L 148.431264 161.570173 
L 156.198096 157.5594 
L 156.362184 157.479171 
L 162.323991 154.430964 
L 162.54277 154.325084 
L 163.08972 154.071595 
L 163.253807 154.001042 
L 163.47259 153.87586 
L 163.855456 153.696201 
L 165.058754 153.096162 
L 165.22284 153.057677 
L 165.496319 152.916503 
L 165.824495 152.788129 
L 166.480842 152.473697 
L 166.644931 152.422361 
L 166.918411 152.290829 
L 167.137197 152.197732 
L 167.465378 152.066217 
L 168.121736 151.771019 
L 168.504612 151.636245 
L 169.434453 151.260851 
L 170.145502 150.984886 
L 170.856552 150.702539 
L 171.02064 150.667262 
L 175.068137 149.335652 
L 175.286923 149.26829 
L 176.271461 148.998759 
L 176.490246 148.931381 
L 176.873122 148.860777 
L 179.662629 148.138865 
L 179.990807 148.097138 
L 180.318982 147.994483 
L 180.811247 147.91427 
L 181.139429 147.817982 
L 181.467608 147.760229 
L 181.686394 147.712135 
L 182.999092 147.452196 
L 183.43666 147.365567 
L 184.749369 147.086428 
L 185.296325 146.996606 
L 185.733893 146.887484 
L 186.06207 146.829731 
L 208.706314 142.96334 
L 209.854935 142.79969 
L 210.019024 142.754788 
L 210.183113 142.725912 
L 213.300807 142.286331 
L 213.683683 142.222161 
L 214.230645 142.148348 
L 215.051087 142.013575 
L 215.543353 141.962289 
L 215.87153 141.872418 
L 216.090312 141.875609 
L 219.973698 141.29808 
L 220.356569 141.230718 
L 220.903527 141.14728 
L 221.286396 141.121612 
L 221.723968 141.038191 
L 222.325626 140.929086 
L 222.708501 140.864882 
L 223.036678 140.845665 
L 223.310161 140.794312 
L 226.920108 140.261685 
L 227.138897 140.252076 
L 227.412385 140.155787 
L 227.631175 140.158979 
L 228.23285 140.062758 
L 229.381492 139.895916 
L 229.764374 139.831746 
L 231.022392 139.655245 
L 231.295874 139.636011 
L 232.335104 139.475569 
L 232.608584 139.424216 
L 233.046154 139.369689 
L 233.319638 139.308727 
L 233.593122 139.273434 
L 234.30418 139.170745 
L 237.914141 138.628509 
L 238.132925 138.599633 
L 241.360031 138.118341 
L 241.578819 138.10549 
L 241.852302 138.031678 
L 242.56335 137.929023 
L 245.790429 137.460549 
L 246.173303 137.386736 
L 246.446787 137.348268 
L 247.923583 137.104389 
L 248.415847 137.024193 
L 249.126896 136.915104 
L 249.455072 136.870185 
L 259.081563 135.262661 
L 259.245653 135.224125 
L 260.120796 135.082951 
L 262.63683 134.697948 
L 262.855615 134.643387 
L 263.730762 134.482962 
L 263.894854 134.473337 
L 264.387128 134.380257 
L 265.371669 134.232666 
L 265.754546 134.162112 
L 265.918635 134.146053 
L 266.13742 134.120368 
L 266.629689 134.008071 
L 267.559522 133.857288 
L 267.778306 133.783476 
L 267.942395 133.773851 
L 268.65344 133.66797 
L 268.92692 133.619826 
L 270.567832 133.350329 
L 270.731922 133.302202 
L 271.224196 133.221956 
L 273.02918 132.878646 
L 273.193268 132.862587 
L 286.101657 130.49144 
L 286.648619 130.408002 
L 287.414368 130.263637 
L 287.68785 130.196225 
L 288.07073 130.135263 
L 290.64145 129.634721 
L 290.91493 129.583368 
L 291.735377 129.394084 
L 292.391732 129.288203 
L 292.829298 129.172697 
L 293.157472 129.147012 
L 293.376256 129.105285 
L 293.868521 128.980171 
L 294.196698 128.948086 
L 295.400005 128.675347 
L 295.618789 128.65287 
L 296.658016 128.434692 
L 296.931496 128.376923 
L 300.650834 127.578007 
L 300.814923 127.594016 
L 301.1431 127.497778 
L 301.307189 127.462501 
L 301.963539 127.31486 
L 302.18232 127.285983 
L 303.385615 127.035754 
L 309.238055 125.752288 
L 309.511534 125.70416 
L 327.123713 121.504052 
L 327.2878 121.439899 
L 328.381711 121.151134 
L 328.873972 121.013152 
L 331.389989 120.336142 
L 331.663467 120.239854 
L 332.155727 120.111531 
L 333.085549 119.819524 
L 333.304332 119.77783 
L 334.288845 119.456947 
L 334.507627 119.434521 
L 338.445663 118.170323 
L 338.664441 118.077243 
L 339.102 117.945728 
L 339.430167 117.814163 
L 339.867723 117.637678 
L 340.031806 117.605593 
L 340.250583 117.531798 
L 340.633444 117.387416 
L 341.235083 117.172429 
L 347.853139 114.345626 
L 348.45478 114.043993 
L 348.947038 113.819398 
L 349.220514 113.658973 
L 349.658079 113.418336 
L 351.517723 112.430085 
L 351.791197 112.266435 
L 354.252468 110.729498 
L 354.471247 110.585115 
L 354.963503 110.21933 
L 355.346369 109.972259 
L 357.424788 108.393627 
L 357.643572 108.226786 
L 359.284451 106.827813 
L 359.667315 106.474879 
L 360.378348 105.785018 
L 360.542432 105.647036 
L 362.784922 103.298315 
L 363.113092 102.916521 
L 365.683766 99.736748 
L 367.652771 96.935646 
L 368.090332 96.265053 
L 368.80136 95.142029 
L 369.129529 94.644678 
L 369.567083 93.861771 
L 370.934441 91.522692 
L 371.371993 90.694866 
L 372.137717 89.247784 
L 373.45038 86.639174 
L 374.106717 85.246619 
L 375.692852 81.739597 
L 376.950834 78.729909 
L 377.552475 77.289226 
L 383.186045 61.448269 
L 388.436736 42.895981 
L 389.768609 37.438125 
L 389.768611 37.463793 
" clip-path="url(#p4528a15430)" style="fill: none; stroke: #ff7f0e; stroke-width: 1.5; stroke-linecap: square"/>
   </g>
   <g id="patch_3">
    <path d="M 50.14375 354.958125 
L 50.14375 22.318125 
" style="fill: none; stroke: #000000; stroke-width: 0.8; stroke-linejoin: miter; stroke-linecap: square"/>
   </g>
   <g id="patch_4">
    <path d="M 496.54375 354.958125 
L 496.54375 22.318125 
" style="fill: none; stroke: #000000; stroke-width: 0.8; stroke-linejoin: miter; stroke-linecap: square"/>
   </g>
   <g id="patch_5">
    <path d="M 50.14375 354.958125 
L 496.54375 354.958125 
" style="fill: none; stroke: #000000; stroke-width: 0.8; stroke-linejoin: miter; stroke-linecap: square"/>
   </g>
   <g id="patch_6">
    <path d="M 50.14375 22.318125 
L 496.54375 22.318125 
" style="fill: none; stroke: #000000; stroke-width: 0.8; stroke-linejoin: miter; stroke-linecap: square"/>
   </g>
   <g id="text_19">
    <!-- GCD Curves -->
    <g transform="translate(237.150625 16.318125) scale(0.12 -0.12)">
     <defs>
      <path id="DejaVuSans-47" d="M 3809 666 
L 3809 1919 
L 2778 1919 
L 2778 2438 
L 4434 2438 
L 4434 434 
Q 4069 175 3628 42 
Q 3188 -91 2688 -91 
Q 1594 -91 976 548 
Q 359 1188 359 2328 
Q 359 3472 976 4111 
Q 1594 4750 2688 4750 
Q 3144 4750 3555 4637 
Q 3966 4525 4313 4306 
L 4313 3634 
Q 3963 3931 3569 4081 
Q 3175 4231 2741 4231 
Q 1884 4231 1454 3753 
Q 1025 3275 1025 2328 
Q 1025 1384 1454 906 
Q 1884 428 2741 428 
Q 3075 428 3337 486 
Q 3600 544 3809 666 
z
" transform="scale(0.015625)"/>
      <path id="DejaVuSans-44" d="M 1259 4147 
L 1259 519 
L 2022 519 
Q 2988 519 3436 956 
Q 3884 1394 3884 2338 
Q 3884 3275 3436 3711 
Q 2988 4147 2022 4147 
L 1259 4147 
z
M 628 4666 
L 1925 4666 
Q 3281 4666 3915 4102 
Q 4550 3538 4550 2338 
Q 4550 1131 3912 565 
Q 3275 0 1925 0 
L 628 0 
L 628 4666 
z
" transform="scale(0.015625)"/>
      <path id="DejaVuSans-75" d="M 544 1381 
L 544 3500 
L 1119 3500 
L 1119 1403 
Q 1119 906 1312 657 
Q 1506 409 1894 409 
Q 2359 409 2629 706 
Q 2900 1003 2900 1516 
L 2900 3500 
L 3475 3500 
L 3475 0 
L 2900 0 
L 2900 538 
Q 2691 219 2414 64 
Q 2138 -91 1772 -91 
Q 1169 -91 856 284 
Q 544 659 544 1381 
z
M 1991 3584 
L 1991 3584 
z
" transform="scale(0.015625)"/>
      <path id="DejaVuSans-72" d="M 2631 2963 
Q 2534 3019 2420 3045 
Q 2306 3072 2169 3072 
Q 1681 3072 1420 2755 
Q 1159 2438 1159 1844 
L 1159 0 
L 581 0 
L 581 3500 
L 1159 3500 
L 1159 2956 
Q 1341 3275 1631 3429 
Q 1922 3584 2338 3584 
Q 2397 3584 2469 3576 
Q 2541 3569 2628 3553 
L 2631 2963 
z
" transform="scale(0.015625)"/>
     </defs>
     <use xlink:href="#DejaVuSans-47"/>
     <use xlink:href="#DejaVuSans-43" x="77.490234"/>
     <use xlink:href="#DejaVuSans-44" x="147.314453"/>
     <use xlink:href="#DejaVuSans-20" x="224.316406"/>
     <use xlink:href="#DejaVuSans-43" x="256.103516"/>
     <use xlink:href="#DejaVuSans-75" x="325.927734"/>
     <use xlink:href="#DejaVuSans-72" x="389.306641"/>
     <use xlink:href="#DejaVuSans-76" x="430.419922"/>
     <use xlink:href="#DejaVuSans-65" x="489.599609"/>
     <use xlink:href="#DejaVuSans-73" x="551.123047"/>
    </g>
   </g>
   <g id="legend_1">
    <g id="line2d_21">
     <path d="M 80.026219 30.870437 
L 90.026219 30.870437 
L 100.026219 30.870437 
" style="fill: none; stroke: #1f77b4; stroke-width: 1.5; stroke-linecap: square"/>
    </g>
    <g id="text_20">
     <!-- With Iodine -->
     <g transform="translate(108.026219 34.370437) scale(0.1 -0.1)">
      <defs>
       <path id="DejaVuSans-57" d="M 213 4666 
L 850 4666 
L 1831 722 
L 2809 4666 
L 3519 4666 
L 4500 722 
L 5478 4666 
L 6119 4666 
L 4947 0 
L 4153 0 
L 3169 4050 
L 2175 0 
L 1381 0 
L 213 4666 
z
" transform="scale(0.015625)"/>
       <path id="DejaVuSans-49" d="M 628 4666 
L 1259 4666 
L 1259 0 
L 628 0 
L 628 4666 
z
" transform="scale(0.015625)"/>
       <path id="DejaVuSans-64" d="M 2906 2969 
L 2906 4863 
L 3481 4863 
L 3481 0 
L 2906 0 
L 2906 525 
Q 2725 213 2448 61 
Q 2172 -91 1784 -91 
Q 1150 -91 751 415 
Q 353 922 353 1747 
Q 353 2572 751 3078 
Q 1150 3584 1784 3584 
Q 2172 3584 2448 3432 
Q 2725 3281 2906 2969 
z
M 947 1747 
Q 947 1113 1208 752 
Q 1469 391 1925 391 
Q 2381 391 2643 752 
Q 2906 1113 2906 1747 
Q 2906 2381 2643 2742 
Q 2381 3103 1925 3103 
Q 1469 3103 1208 2742 
Q 947 2381 947 1747 
z
" transform="scale(0.015625)"/>
      </defs>
      <use xlink:href="#DejaVuSans-57"/>
      <use xlink:href="#DejaVuSans-69" x="96.626953"/>
      <use xlink:href="#DejaVuSans-74" x="124.410156"/>
      <use xlink:href="#DejaVuSans-68" x="163.619141"/>
      <use xlink:href="#DejaVuSans-20" x="226.998047"/>
      <use xlink:href="#DejaVuSans-49" x="258.785156"/>
      <use xlink:href="#DejaVuSans-6f" x="288.277344"/>
      <use xlink:href="#DejaVuSans-64" x="349.458984"/>
      <use xlink:href="#DejaVuSans-69" x="412.935547"/>
      <use xlink:href="#DejaVuSans-6e" x="440.71875"/>
      <use xlink:href="#DejaVuSans-65" x="504.097656"/>
     </g>
    </g>
    <g id="line2d_22">
     <path d="M 80.026219 45.548563 
L 90.026219 45.548563 
L 100.026219 45.548563 
" style="fill: none; stroke: #ff7f0e; stroke-width: 1.5; stroke-linecap: square"/>
    </g>
    <g id="text_21">
     <!-- Without Iodine -->
     <g transform="translate(108.026219 49.048563) scale(0.1 -0.1)">
      <use xlink:href="#DejaVuSans-57"/>
      <use xlink:href="#DejaVuSans-69" x="96.626953"/>
      <use xlink:href="#DejaVuSans-74" x="124.410156"/>
      <use xlink:href="#DejaVuSans-68" x="163.619141"/>
      <use xlink:href="#DejaVuSans-6f" x="226.998047"/>
      <use xlink:href="#DejaVuSans-75" x="288.179688"/>
      <use xlink:href="#DejaVuSans-74" x="351.558594"/>
      <use xlink:href="#DejaVuSans-20" x="390.767578"/>
      <use xlink:href="#DejaVuSans-49" x="422.554688"/>
      <use xlink:href="#DejaVuSans-6f" x="452.046875"/>
      <use xlink:href="#DejaVuSans-64" x="513.228516"/>
      <use xlink:href="#DejaVuSans-69" x="576.705078"/>
      <use xlink:href="#DejaVuSans-6e" x="604.488281"/>
      <use xlink:href="#DejaVuSans-65" x="667.867188"/>
     </g>
    </g>
   </g>
  </g>
 </g>
 <defs>
  <clipPath id="p4528a15430">
   <rect x="50.14375" y="22.318125" width="446.4" height="332.64"/>
  </clipPath>
 </defs>
</svg>
